<?xml version="1.0"?>
    
<!--********* Copyright (c) 2024 Pareto Softare, LLC DBA Simplemaps.com ***************************************
************* Free for Commercial Use, full terms at  https://simplemaps.com/resources/svg-license ************
************* Attribution is appreciated! https://simplemaps.com *******************************************-->

<svg baseprofile="tiny" fill="#6f9c76" height="422" stroke="#ffffff" stroke-linecap="round" stroke-linejoin="round" stroke-width=".5" version="1.2" viewbox="0 0 1000 422" width="1000" xmlns="http://www.w3.org/2000/svg">
 <g id="features">
  <path d="M889.7 82.2l-3.1 1.1-4.8 2.7-7.7 3.3-7.8 3.3-5.7 3-1.1 4.8-0.7 7.5-0.9 4.5-5.7 0.6-5.5 1.1-1.4-2.6-1.9-1.9-1.4-2.1-1-2.4-1.3-1.7-1.8-1.2-2.4-3.7-1-4.9 3-5.9 4.1-4.6 4-2 1.2-4.2-1.3-4.4-0.9-2.3-0.4-0.7-0.5-1.5-0.3-2.7-0.7-3.6 0.5 0 1-0.7 1.4-2.2 1.1-1 0.5-1.1 0.4-2.6 0.5-1 0.9-0.8 0.1 0 0.2 0 0.9-0.4 2.4-0.2 6.7 0.6 0.9 0.4-0.4 0.6-0.1 0.7-0.1 0.6-0.2 0.6-0.4 0.4-1 0.8-0.4 0.7 1.3 0.7 0.9 1 0.9 0.3 1.1-1.4 0.7-0.4 0.3 0.4 0.3 0.8 0.4 0.7 0.3 0.3 1.4 0.4 0.3 0.3 0.2 0.3 0.2 0.2 0.5 0.2 0.3 0.4 1.4 2.7 0.7 0.8 3.5 2.4 2.3 2 1.5 0.7 1.4 0.2 0 0.3-0.6 0.9-0.7 0.6-2.6 1.3 1.3 0.4 1.1-0.1 0.9 0.1 1 1.1 1.1 2.8 0.7 0.5 4.4-1.2 1.3-0.1 1.5 0.4 1.3 0.8 1.3 1.2 0.7 1.5-0.5 1.6z" id="TR75" name="Ardahan">
  </path>
  <text x="850" y="85" font-size="9" font-family="sans-serif" fill="white">ARD</text>
  <path d="M842.7 61.7l0.7 3.6 0.3 2.7 0.5 1.5 0.4 0.7 0.9 2.3 1.3 4.4-1.2 4.2-4 2-4.1 4.6-3 5.9-2.8 0.3-2.8 0.6-3.3-0.3-3.2 0.3-1.6 0.8-1.5 1.3-0.6 2.5 0.3 2.7-1.2 2.5-1.9 1.9-0.9 2.5-0.1 2.8-2.2 3.3-4-2.3-3.8-1.1-3.7 1.1-4 2.6-4.4 1.7-3.2-2.9 0.6-5.3 1.3-2.2-0.4-2.1-1.7-0.6-5.9-0.9-3.7-2.1 0.7-2.5 4.5-5.3 1.1-0.6 1-0.9 0.4-1.3 0.7-1.3 2.6-1.7 1.3-2.9-1.4-1.6-1.9-0.9-0.5-1.1-0.6-1.1-0.9-0.6-0.9-0.9-0.9-2.1-0.4-2.5-1.3-3.3-0.1-0.2 4.1-3.3 1.2-0.4 1-0.6 0.5-0.2 1.7-0.2 0.6-0.2 0.9-0.7 0.7-1.1 0.5-1.4 0.2-1.4 0.5-0.3 2.7-2.5 0.7-1.2 5 2.2 0.7 0.1 1.4-0.1 1.2-0.6 0.3 0 0.1 0.3-0.1 0.5 0 0.5 0.2 0.4 0.6 0.2 1.4 0.2 0.6 0.2 1.9 1.7 0.6 0.3 0.4-0.3 1.9-1.6 1.5-2.1 0.7-0.5 1.9-0.8 3.4 1.3 1.7-0.5 0.6-0.4 0.7-0.1 0.7 0.1 0.7 0.4 1.4-0.5 0.8 0 0.6 0.5 0.8 0.7 1.2 0.1 2.3-0.1 8.3 3.2 0.7 0z" id="TR08" name="Artvin">
  </path>
  <text x="803" y="80" font-size="9" font-family="sans-serif" fill="white">ART</text>
  <path d="M886 315.3l-1.3-0.9-0.6-0.1-0.8 0.1-0.5 0.2-0.4 0.4-0.4 0.1-0.4 0-0.4-0.2-6.2-3.3-0.8-0.3-1.5 0.2-1.9 0.5-1.8 0.8-1.2 0.9-2.1 0.7-1.9-0.3-3.9-1.3-0.4-0.3-0.2-1-0.4-0.4-0.6 0-0.4 0-2.4 1-0.3 0.2-0.3 0.5-0.1 0.4 0 0.4-0.2 0.5-6 8.7-0.5 1.6-0.2 0.3-0.8 0.4-4 0.7-2.8 0.9-2.1 0.2 0-1.7-0.1-0.8-0.4-0.4-0.5-0.7 0.8-3.4-0.3-0.7-0.3-0.2-1.6-1.3-0.2-0.3-0.3-0.6-0.2-0.3-0.3-0.1-0.3 0.2-0.3 0.4-0.3 0.1-1.4-0.7-0.7-0.1 0-0.3 0.1-0.6-0.1-0.7-0.5-0.6-0.9 0.7-0.7 0.4-2.4 3.2-3.5 3.3-2.1 1.3-5.4 1.3-0.9-3.8-3-2.4-5.5-1.7-0.8-2.5 2-2.2 4.5-2.5 3.5-1.7 0.6-4-1.3-5.2-2.8-7.5 6.7 3.3 9.4 0.7 3.7-3.7 6.3 0.3 9.6 2.5 10 1.4 8.1 0.8 2.9-3 0.5-3.4 3.8-2 4.1 0.5 3.6 1.5 1.2 0.3 2.3-0.1 2.3-0.3-0.3 5.5-1 3.5 0.8 3.2 1.6 3.9-0.4 5.2-1.2 3.2-0.6 1.2z" id="TR73" name="Sirnak">
  </path>
  <text x="833" y="310" font-size="9" font-family="sans-serif" fill="white">ŞIR</text>
  <path d="M886 315.3l0.6-1.2 1.2-3.2 0.4-5.2-1.6-3.9-0.8-3.2 1-3.5 0.3-5.5 6.4 0 6.3-1.1 1.3-0.7 1.4-0.5 2 0.3 2 0.8 3 0 3.1-0.6 2.6-1.6 1.2-3.3 1.9-3.4 3.5-0.7 4.1 0.5 0.1 0-0.2 0.5 0.9 1.3 1.6 0.3 3.1-0.4 0.6 0.2 1.7 0.8 0.5 0.4 0.3 0.5 0.1 0.7 0.3 0.8 0.5 0.6 0.4 0.2 0.3-0.1 0.3-0.1 0.4 0.3 0 0.3-0.2 0.9 0 0.4 0.3 0.7 0.7 0 0.8-0.2 0.6-0.4 1.3-0.1 1.3 0.6 1.2 1 1.7 2.2 0.1 0.5-0.4 0.8-1.7 1.3-0.4 0.6-0.2 1.8 1 1.1 1 0.8 0.2 1-0.4 1.2-0.3 1.5-0.1 1.5 0.2 1.2 0.2 1-0.6 1.8 0.3 1 0.6 0.3 1.8 0.2 0.7 0.6 0.7 1.7 0.4 0.5 1.8-0.3 0.4 0.5 0.3 0.9 0.4 0.8 2.7 1.8 1.1 1.2-0.2 2-0.5 0.7-0.7 0.4-0.6 0.5-0.3 1 0.2 1.2 0.4 1 0.3 1.1-0.3 1.1-0.6-1-0.9-0.5-5-0.7-0.9 0-1.5 0.7-1.9 1.4-1.7 1.6-1.1 1.5-1.2 0.9-1.2 0.7-4.1 1.3-0.4 0.7-0.1 0.9-0.8 1.3-0.4 1-0.5 0.4-0.6 0.1-1.9-0.5-0.5-0.4-0.3-0.6-1.9-4.3-0.3-1.3 0-1.2 0.4-1.2 0.8-1.1 0.6-0.3 0.6-0.1 0.4-0.2 0.4-0.7 0.1-0.6-0.1-0.8-0.2-1.3-0.4-1.3-0.6-1.1-0.8-0.8-1-0.7-4.6-1.9-0.9-0.1-1.6-0.3-2.1 0.3-1.8 1.5-1.4 2.1-1.4 1.7-2.6 0.4-0.8 0.9-0.6 0.2-0.4-0.3-1-1-0.5-0.3-1.1-0.3-1.2-0.1-4.9 0.3-1.1-0.1-1.2-0.5-0.9-0.7-0.4-0.2-0.6-0.1-0.6 0.1-1.2 0.5-0.6 0.1-0.8-0.4-2.2-1.8-1.9-1-0.6-0.5z" id="TR30" name="Hakkari">
  </path>
  <text x="898" y="308" font-size="9" font-family="sans-serif" fill="white">HAK</text>
  <path d="M938 173.5l-0.8-0.6-1.8-0.5-8.5 2-3.7-0.5-3.5-1.1-4.7 0.6-4.4-0.7-0.3-0.9-0.3-0.9-3-0.7-4.3-2-1.4-1.9-1.1-2.3-1.5-1.1-1 0-1.6-0.7-0.6-0.5-1.5-0.3-3.2 1.3-3.1 2.1-1.6-0.6-0.7-0.7-0.7-2.3 0-1.5 0.2-2.9-1-3.5 1.8-2.1 0-2.4 2.5-1.2 5.9-0.8 6.2-2.3 2.2 1.2 4.4 1.3 5.2 2.9 5.7 0.9 0.7-0.2 1.7-1.2 1-0.3 0.5 0.2 0.6 0.6 0.4 0.1 0.5-0.1 0.9-0.3 1.4-0.1 2.8-0.8 1.6 0 1.8 0.5 2.6 1.6 4 2.3 2.7 2.4 1.2 1.4 0.6 0.9 0.2 0.9 0.2 0.5 0.4 0.4 0.7 0.6 0.1 0.6 0.1 0.7 0.1 0.3 0.7-0.4 1.7 2 0.9 0.6 0.2 0 0.5-0.1 0.3 0.1 0.2 0.2 0.3 0.5 2.9 3.8 0.7 1.3 0.5 0.7 0.5 2.4 0.5 0.7-3.8-2.8-0.9-0.8-2.9-1.3-0.6-0.7-1.3-2-0.7-0.5-1.2 0.4-5.1 4.1-0.2 0.7 0.3 2-0.1 0.8z" id="TR76" name="Iğdir">
  </path>
  <text x="910" y="164" font-size="9" font-family="sans-serif" fill="white">IGD</text>
  <path d="M938 173.5l0 0.2-0.3 0.8-1.6 3.2-0.2 0.8-0.1 1 0.1 0.9 0.1 0.8 0 0.7-0.5 0.7-0.2 1.4 0.2 1.2-0.1 1.1-0.8 1.2-0.9 0.7-2.4 1.1-1.1 0.3-1.2-0.1-3.3-1.7-1.1-0.1-2.6 0.7-1.1 0.1-1-0.1-0.8 0-0.7 0.2-0.9 0.7-0.6 0.7 0.3 0.7 1.3 1.5-6.7 1.8-1.8-0.3-0.8-0.3-2.8-0.3-2.4-0.7-1.8-0.3-1.8 0.2-1.3 1-1.2 1.3-1.7-0.1-4.1-0.8-2.1-1.3-2.8-2.9-3.2-1.5-3.7-0.2-2.1 1.6-1.7 2.3-1.6 0.5-2.9 0.6-1.1 0.4-0.4 1.9 1.8 1 1.9 0.8 0.3 1.9-0.3 2.1-0.1 2.1-1.2 1.3-5.5 2.3-8.8 1.9-1.6 1.3-1.6 1-2.3 0.7-2 1.3-0.2-3.2 0.4-3 0.5-2.4-0.1-0.9-0.2-0.8 0.2-4-1.7-2.5-1.2-1.2-0.8-1.7-1.5-1.7-1.5-1.4-1.9-3.4-1.4-3.8 1.5-2.5 0.5-2.9-0.1-8.3 0.5-1.7 0.6-0.4-6.7-2.8-3.9-4.7 1.7-0.7 3.6 0.6 1.7-0.6 1-1.5 1.2-0.5 0.6-0.1 1.2 0.1 1.6-0.9 1.3-1.5 9.2 1.8 14.6-4.2 5.2 0.1 2.2 0.6 2.1-0.5 2.6 1.1 1 3.5-0.2 2.9 0 1.5 0.7 2.3 0.7 0.7 1.6 0.6 3.1-2.1 3.2-1.3 1.5 0.3 0.6 0.5 1.6 0.7 1 0 1.5 1.1 1.1 2.3 1.4 1.9 4.3 2 3 0.7 0.3 0.9 0.3 0.9 4.4 0.7 4.7-0.6 3.5 1.1 3.7 0.5 8.5-2 1.8 0.5 0.8 0.6z" id="TR04" name="Agri">
  </path>
  <text x="860" y="180" font-size="9" font-family="sans-serif" fill="white">AGR</text>
  <path d="M887.1 289.6l-2.3 0.3-2.3 0.1-1.2-0.3-3.6-1.5-4.1-0.5-3.8 2-1.9-4.5 0.5-1.6 0.7-1.5 0.2-3.5 0.6-2.4 0.2-2.6-0.3-2.4 0.2-2.5-0.5-4.3-3.4-1.3-3.8-0.7-3.7 0.3-2.5-0.9-0.9-3.1 0.5-2.1-0.1-1.6-0.2-0.7-1.7-3.9-0.3-1.3 0.5-2.5 0.8-0.9 5.1-2.9 3-2.1 1-1.7 0.8-1.9 4.4-6.5 2.6-2.8 3.4-2.6 1.4-4.5-1.9-3-5.6-3.4-1.4-3.1-0.1-4.6 5.5-2.3 1.2-1.3 0.1-2.1 0.3-2.1-0.3-1.9-1.9-0.8-1.8-1 0.4-1.9 1.1-0.4 2.9-0.6 1.6-0.5 1.7-2.3 2.1-1.6 3.7 0.2 3.2 1.5 2.8 2.9 2.1 1.3 4.1 0.8 1.7 0.1 1.2-1.3 1.3-1 1.8-0.2 1.8 0.3 2.4 0.7 2.8 0.3 0.8 0.3 1.8 0.3 6.7-1.8 0.2 0.6 0.3 1.3 0.5 1.2 0 0.5-0.1 0.4 0 0.6 0.2 0.5 0.5 1.2 0.1 0.5-0.3 1.1 0 0.6 1.2 0.9 2.2 1.1 1.8 1.3 0.4 1.5-1 1.9-0.2 1 0.4 2.4-0.4 0.7-0.8 0.6-0.7 1.2 0.3 0.4 0.1 0.4 0.2 1 0.3 0.4 0.5 0.3 0.3 0.4 0.1 0.6-0.1 0.5 0.2 0.5 0.2 0.4 0.4 1.4 0.7 0.9 0.8 0.8 2.5 1.2 0.2 1.8-1.3 4.4-0.2 1.2 0.1 0.7 0.3 0.8 0.2 1.1-0.2 0.4-0.4 0.4-0.2 0.4 0.6 0.3 0.9 0.3 0.3 0.2 0.4 0.4 0.3 1 0 1.3-0.2 2.4 0.4 3.1 0 1-0.6 2.5 0 0.7 0.1 1.5 0 0.6-0.2 1 0.2 0.5 0.4 0.3 0.7 0.3 2.4 0.5 1.5-0.9 0.6-0.2 0.8 0.3 0.7 0.6 0.5 0.8 0.4 1 0 0.9-1 1.6-1.8 1.3-1.3 1.5 0.2 2.9-0.2 1.2-0.2 1.2-0.4 0.9-0.3 0.5-0.9 0.3-0.3 0.4-0.1 0.5 0.4 1.1-0.3 0.4-0.9 0.4-0.6 0.5-0.5 0.8-0.4 1.3-0.4 0.9-1.1 1.3-0.5 0.9-0.4 0.7-0.3 0.8 0 0.7 0.2 0.9 0 0.8-0.4 0.6-0.5 0.6 0 0.2-0.1 0-4.1-0.5-3.5 0.7-1.9 3.4-1.2 3.3-2.6 1.6-3.1 0.6-3 0-2-0.8-2-0.3-1.4 0.5-1.3 0.7-6.3 1.1-6.4 0z" id="TR65" name="Van">
  </path>
  <text x="887.1" y="250" font-size="9" font-family="sans-serif" fill="white">VAN</text>
  <path d="M166.1 54.8l-2.2 3-0.1 0-8.3 0.9-8.2 1.1-5.2 1.2-4.6 1.4-2.3 3.4-1.7 3.5-2.7 2.1-3.1 0.8-2.6-1.7-2.1-2.8-2.7-1.8-5.5 0-7.7 0.6-7.2 1.6-1.4-2.9 2.3-4.8 0.7-4.6 1.9-2.9 1.1-6.2-0.6-6.1-1.5-6.1-1.2-7.3 0-0.1 0.6-0.5 0.5-0.3 0.5 0 0.5 0.1 0.4 0 0.5-0.5 0.5-0.2 0.9 0.2 0.4-0.1 0.6-0.7 0.3-0.8 0.5-0.6 0.6-0.3 1-0.6 1-2 1.1-0.6 0.1 0 0.8 0 0.9 0.3 0.8 0.5 0.7 0.6 0.6-0.1 1 0.1 1.2 0.3 0.2-0.1 0-0.2 0.2-0.3 1-1.4 0.6-0.5 1-0.1 1.7 0.3 1.5 1 1.3 1.2 2 3.2 1.1 1.2 1.1 1 3.5 2 0.7 0.6 1.2 1.6 0.6 0.4 0.8-0.3-0.7-0.3 0.1-0.1 0.3-0.2 0.2-0.1-0.2-0.1-0.1-0.1-0.1-0.1-0.1-0.1 1-0.4 0.5-0.3 0.4-0.5 0.3 0.2 0.3 0 0.2-0.3 0.1-0.6 3.7-1 1.7 0.1 2.5 1.4 0.6 0.2 0.7-0.1 0.6-0.2 0.1-0.4-0.7-0.4 0.1-0.7 0-0.8 0.1-0.7 0.2 0 0.2-0.1 0.2 0.1 0.2 0 0.9-0.1 0.4 0 1.2 0.3 1.2 0.6 0.7 0.2 2.3-0.2 0.7 0.2 1.7 0.4 0.7 3 0 0.7 0.2 0.2 0.3 0.4 0.2 0.5 0 0.4-0.5 0.3-0.5-0.1-0.8-0.4-0.8 0.1-0.6 0.3-0.4 0.9-0.2 1.6 0.3 1.7 0.7 1.1 0.9 1 0.7 1.2 0.9 2.8 0.6 0.9 0.8 0.8 0.4 0.4 0.3 0.7 0.1 0.1 0.1 0.2 0.1 0.4-0.1 0.2-0.3 0-0.2 0-0.1 0.4 0.4 1 0.6 1.2 0.8 1 1.4 0.8 0.7 0.9 1 1.6 1.2 1.2z" id="TR39" name="Kirklareli">
  </path>
  <text x="120" y="50" font-size="9" font-family="sans-serif" fill="white">KIR</text>

  <path d="M101.2 27.1l0 0.1 1.2 7.3 1.5 6.1 0.6 6.1-1.1 6.2-1.9 2.9-0.7 4.6-2.3 4.8 1.4 2.9 0.6 1.1 0.3 8.8-0.7 3.8-2.3 3-1.5 3.8-0.8 4.4 0.3 5.1 1.8 3.9 1.2 4.1 0 0.2-0.3 3.7 0 0.3-3.1 0.5-1.2 0.5-0.6 0.2-3.2 0-1.3 0.4-3.6 2.2-1.4-0.9-0.8-0.3-0.7-0.1-0.7 0.3-0.7 0.4-0.8 0.3-1.2-0.7-0.8 0.1-2.6 0.7-8.8 0-1.2-0.2-0.7-0.4-0.4-1-0.3-1.1-0.4-1 0.3-0.9-0.1-1.4-0.5-1.4-0.7-0.9 0.4-0.1 0.1-0.2 1.8 0.2 1.5-0.7 1-1.3 0.4-1.6 0.8-1.2 2.5-2.2-0.3-0.7 0-0.4 0.2-0.2 0.4-0.2-0.1-0.1-0.2 0 0-0.1 0-0.3 0.4-0.1 0.2-0.2 0.1-0.3 0-0.6 0.2 0.5 0.1 0.3 0.3 0 0.3-0.4 0.3-0.5 0.4-1.3 0.3 0 0.2 0.4 0.2 0.3 0.3 0.2 0.4 0 0.7-0.2-0.1-0.4-0.2-0.4-0.2-0.3 0.6-0.6 1.4-0.6 0.6-0.5 0.5-0.7-0.1-0.2-0.5-0.2-0.5-0.6-0.1-0.6 0.1-0.4 0.4-0.2 0.7-0.1 0.4-0.4 0.4-0.7-0.1-0.7-1.2-0.7-0.5-0.6-0.6-1.4-0.1-1 0.8-1.6-0.4-0.3-0.7-0.2 0-0.5 0.9-1.4-0.6-1.1-0.1-1.1 0.2-1.2 0.5-1.4-0.7-1.1 0.5-0.5 3-0.3 0.8-0.4 1.3-1.2 1.3-0.8 0.3-0.3 0.1-0.3 0.2-0.2 0.5-0.1 2.4-2.6 0.5 0.7 0.9 0.5 1 0.2 0.9 0 0.6-0.7 0.4-1 0.3-1.4 0-1.3-0.2-1.3-0.8-3.1-0.2-2.3-0.3-1.1-0.5-0.9 0.3-0.7-0.2-1.6 0.2-0.8-0.1-0.3-0.1-0.5-0.1-0.4 0-0.5-0.9 1.4-0.5-0.5-2.1-1.2-2.7-2 0.4-0.8 0.2-0.9-0.8-0.2-0.8-0.4-1.9-0.4-1.2-1.2-0.9-0.3-1.2 0.1-0.5-0.7-0.3-1.2 0.1-1.4 0.7-1.6 2-1.7 4.9 0.2 2.2-0.7 0.7-0.8 0.4-1.2 0.2-1.2 0-0.4 0-0.4 0.1-0.4 0.2-0.5 0-0.4-0.1-0.2-0.6-0.4-0.1-0.2 0.2-0.4 0.3-0.3 0.4-0.3 1.3-1.5 0.8-0.5 0.9-0.1 4.4 0.7 0.9-0.1 0.5-0.3 1-1.1 0.6-0.1 0.5 0.2 0.8 0.8 0.6 0.1 0.4-0.2 0.4-0.4z" id="TR22" name="Edirne">
  </path>
  <text x="70" y="90" font-size="9" font-family="sans-serif" fill="white">EDR</text>

  <path d="M846.7 114.1l5.5-1.1 5.7-0.6 0.9-4.5 0.7-7.5 1.1-4.8 5.7-3 7.8-3.3 7.7-3.3 4.8-2.7 3.1-1.1-0.2 1.5 0.3 2 0.8 1.8 0.9 0.8 2 0.3 2.1 1.1 1.9 1.5 1.4 1.9 0.6 1.2 0.2 1.2 0.1 1.3 0.3 1.4 0.4 1.3 2 3.1 0.5 1.2 0.1 1 0.3 4.4-0.2 0.5-1 1.8-0.2 0.3 0.3 1.5-2 2.3-0.6 1.3 0 1.5-0.3-0.2-0.2-0.1-0.2 0-0.3-0.1 0.2 0.2 0.1 0.2 0.1 0.5-1.1 0.1-1.1 0.7-1.6 1.9 0.2 0.9 1 1.1 1.9 1.6 0 0.5 0 0.1-0.7 2.4-0.4 0.7-0.3 1 0.4 1 1.3 1.2 2.1 2.8 0.7 1.5 0.1 0.2-0.9 0.6 0.5 1.1 1.5 1.9 0.3 0.7-0.5 0.8-2.1 0.4-0.7 0.6 0.6 1.8-6.2 2.3-5.9 0.8-2.5 1.2 0 2.4-1.8 2.1-2.6-1.1-2.1 0.5-2.2-0.6-5.2-0.1-14.6 4.2-9.2-1.8-1.4-2.3-1.1-2.5-1.2-1.9-1.9-0.8-1-0.3-0.8-0.6-0.6-1.3-0.8-1.1-1.4-1-1.5-0.5-4.1-0.7-1.1-1.3-1-1.7-1.7-2 1.5-3.3 6.9-2.4 3-1.7 1.5-1.2 1.6-1.1 2-0.9 1.9-1.2-1.1-6.2 0.7-2.2 0.3-2.1z" id="TR36" name="Kars">
  </path>
  <text x="860" y="135" font-size="9" font-family="sans-serif" fill="white">KAR</text>

  <path d="M812.6 290.8l2.8 7.5 1.3 5.2-0.6 4-3.5 1.7-4.5 2.5-2 2.2 0.8 2.5 5.5 1.7 3 2.4 0.9 3.8-19.8 4.7-13.2 0.6-1-0.3-2.1-0.9-11.4-2.2-8.9 1.3-2.3 0.9-6.4 3.5-2.1 0.7-1.1 0-1.1 0.2-1 0.4-0.9 0.6-6.3 4.2-2.1-1.1-4.3-7.5 0.5-4.8-0.6-1.2-2.4-2.5-1.5-1.3-1.4-1.5-0.6-7 4.6-6 2.1-2 5.2-3.6 2.4-0.9 5.2-4.1 3.8-0.3 2.3-3 0.6-1.4 5.2-1.1 16.6 0.5 3-1.5 1.2 0 0.9 0.4 3.4 4.3 3.3 6.9 5.1 3.2 7.3-1.5 5.3-3.9 8.8-6.3z" id="TR47" name="Mardin">
  </path>
  <text x="760" y="318" font-size="9" font-family="sans-serif" fill="white">MAR</text>
  <path d="M726.3 311.1l0.6 7 1.4 1.5 1.5 1.3 2.4 2.5 0.6 1.2-0.5 4.8 4.3 7.5 2.1 1.1-3.4 2.3-1.8 0.9-1.8 0.3-1.7 0.6-4.7 2.8-10.2 3.9-15.3 2.9-9.6 1.9-2.6 0.1-7.3-2.5-2.5 0.2-1 0.3-7.7 0.3-3.4-0.4-2.9-1.5-1.3-1.5-5.1-5.3-2.3-1.3-9-2.7-3.2-0.4-1.6 0.2-3.2 1.2-4.6 3 0-0.1-0.2-0.5-0.1-0.8 0.1-0.8 0.4-0.3 0.5-0.2-0.2-0.5-0.8-0.9-0.2-0.6-0.1-0.6 0-1.5-0.2-0.5-1.3-1.2-0.7-0.8-0.1-0.5 0-0.9 0.6-1.4 0.1-0.7-0.5-0.3-0.7 0.1-1.1 0.6-0.4 0.1-0.4-0.3-0.5-0.5-0.4-0.3-0.6 0.3-0.6-0.6-0.1-0.8 0.3-1.7 0.1-1.4-0.1-0.6-0.3-0.7-0.8-1.3-0.3-0.8-0.2-0.9 0.2-1 0.4-0.4 0.4 0.1 0.3 0.7 0.3 0 0-1.3-0.3-0.9-0.6-0.6-0.7-0.5 0.6-2.1 0.2-0.6 0.4-0.3 0.4-0.2 0.2-0.2 0.4-1.5 0.5-0.8 1.6-1.6 2.1-2.7 0.7-0.6 0.8 0 0.8 0.1 0.8-0.1 0.7 0.5 0.5 0 1.4-1 0.6 0.8 0.9 0.4 2.1 0.5 0.2 0.2 0.1 0.5 0.2 0.1 0.2-0.1 0.1-0.1 0.1-0.1 0.2-0.1 0.2-0.3-0.1-0.7 0.1-0.8 0.4-0.3 2.1 0.3 0.7-0.3 0.3-1.4 0.5 0 2.8-1 1.5 0.6 5.8-1 1-0.6 2.8-3.1 0.6-1 0.5-0.3 2.3-2.4 10.5-1.6-2.3-1.8-0.9-1 1-0.6 0.1 0.2 0.6 0.6 0.2 0.1 0.4-0.1 0.3-0.1 0.3-0.1 0.2-0.1 0.2-0.2 0.2-0.5 0.4-0.3 0.8 0.6 0.4 0 0.4-0.2 0.3-0.3-1.2-1.3-0.4-0.3 0.6-0.7 1-0.2 1.1-0.1 0.9-0.2-0.6-0.9 0.1-1.5-0.5-0.5-0.6 0.1-1.3 0.9-0.7 0.2 0.4-0.9 0.5-0.8 0.7-0.5 0.7-0.2 0.4 0 0.9 0.3 0.3 0.1 0.3-0.5 0.1-0.5-0.1-0.4-0.3-0.3 0.6-0.9 0.3-0.8-0.1-0.7-0.4-0.9 2.3-0.8 0.6-0.4 0.5-0.9 0.2-2 0.2-0.9 0.6-0.7 0.8-0.4 2.9-0.9 1.9-1.3 3.7 2 3.8 0.7 2.9 0.1 2.6 1.2 2.8 3 3.1 2.6 1.5 0.8 1.6 0.5 1.8 1.7 2.3 1 0.5-0.7 0.4-0.8 1.4 0.6 1.2 1.1 0.8 0.5 0.9 0.2 0.7 1.5-0.3 6.5 0.7 4.5 0.4 1.7 0.2 0.9 1.7 4.9 1.6 3.1 2.2 2.5z" id="TR63" name="Sanliurfa">
  </path>
  <text x="660" y="322" font-size="9" font-family="sans-serif" fill="white">URF</text>
  <path d="M608.6 352.8l-3.6 2.4-2-0.1-7.7-1.4-1.1 0.1-3 0.8-0.9-0.1-0.7-0.3-0.8 0-0.9 0.4-0.8 0.7-0.3 0.6-0.5 0.1-0.9-0.5-0.9-0.8-0.2-0.7 0.4-1.9 0-1.2-0.4-0.8-1.4-1.3-0.8-0.7-0.9-0.6-0.9-0.3-0.9-0.2-3-0.2-8.8-3.1 2.6-2.5 4-1.8 3.2-2.2 0.4-3.9 1.5-1.3 1.7 1 1.5 3.3 3.2 0.6 3.7 2.5 3.9 4 2 2.4 1.4-0.9 3.5 1.9 4.4 2.4 4 3.6z" id="TR79" name="Kilis">
  </path>
  <text x="580" y="350" font-size="9" font-family="sans-serif" fill="white">KLS</text>

  <path d="M633.2 306.9l-0.8 0.1-0.8-0.1-0.8 0-0.7 0.6-2.1 2.7-1.6 1.6-0.5 0.8-0.4 1.5-0.2 0.2-0.4 0.2-0.4 0.3-0.2 0.6-0.6 2.1 0.7 0.5 0.6 0.6 0.3 0.9 0 1.3-0.3 0-0.3-0.7-0.4-0.1-0.4 0.4-0.2 1 0.2 0.9 0.3 0.8 0.8 1.3 0.3 0.7 0.1 0.6-0.1 1.4-0.3 1.7 0.1 0.8 0.6 0.6 0.6-0.3 0.4 0.3 0.5 0.5 0.4 0.3 0.4-0.1 1.1-0.6 0.7-0.1 0.5 0.3-0.1 0.7-0.6 1.4 0 0.9 0.1 0.5 0.7 0.8 1.3 1.2 0.2 0.5 0 1.5 0.1 0.6 0.2 0.6 0.8 0.9 0.2 0.5-0.5 0.2-0.4 0.3-0.1 0.8 0.1 0.8 0.2 0.5 0 0.1-0.8 0.5-1.4 0.4-7.6 3.5-7.8 1.7-2.9 1.2-3.4 2.2-4-3.6-4.4-2.4-3.5-1.9-1.4 0.9-2-2.4-3.9-4-3.7-2.5-3.2-0.6-1.5-3.3-1.7-1-1.5 1.3-0.4 3.9-3.2 2.2-4 1.8-2.6 2.5-0.3-0.5-0.8-0.1-0.6-0.5-0.4-1.2-0.8-0.8-3.8-1.7-3.1-3.1 1.1-2.2 1.8-1.7 3.3-4.2 2.6-5.1 1.8-2.8 2.2-2.5 5.7-2.6 2.3-3.1 2.3 1.5 1.3 5.3 3.7 1.2 4.3-4.6 2.6-1.3 6-1.1 6.3-2.2 3-0.4 3 0.1 2-1.4 0.6-2.7-0.3-1.7 0.1-1.8 5.2-1.1 5.2 0.1 5.6 2.1 3.7 3.3z" id="TR27" name="Gaziantep">
  </path>
  <text x="580" y="330" font-size="9" font-family="sans-serif" fill="white">GAZ</text>

  <path d="M557.8 335.8l3.1 3.1 3.8 1.7 0.8 0.8 0.4 1.2 0.6 0.5 0.8 0.1 0.3 0.5-0.5-0.1-0.4 0.1 0.2 1.4-0.6 1.2-0.7 1-0.6 1.2-0.2 1.3-0.1 1.1-0.1 1.2-0.6 1.4-0.6 2.5 0 2.6-0.2 2.6-1.4 2.2-0.3 0.9 0.2 1 0.9 3.2 0.2 0.5 0.4 0.3 0.7 0.3 0.2 0.2 0.3 0.4 0.1 0.4 0.1 0.4-0.1 0.5-0.3 0.9-0.2 0.5-0.2 0.1 0.4 0.4 1.6 0.2 0.8 0.3 0.5 0.6 0 0.1 0.5 0.8 0.3 1 0.2 0.9 0 1.3-0.2 0.5-3.4 0.6-0.9 0-3.6-0.6-0.9 0.2-0.5 0.2-0.2 0.3 0 0.5-0.3 0.3-0.4 0.2-0.2 0-0.3-0.1-1.3-0.2-0.7-0.2-0.6-0.4-0.6-0.7-0.5 0.5 0.7 0.8-0.1 0.5-0.4 0.4-0.3 0.5 0 0.8-0.2 8.5 0.1 1.7-1 0.3-1.9-0.7-0.9 0.4-0.4 2.1-0.8 0.1-1.1-0.3-1.5 0.6-1.1 1.7-0.3 4.1-0.5 1.7-0.1 0.1-0.8 0.1-2.8-2-1.4-0.7-1.5 0-0.7-0.2-0.5-0.5-0.1-0.7 0.1-0.7 0-0.8-0.6-0.7-0.9 0.2-1 0.3-0.9 0.2-0.5-0.1 0-0.1 0.6-0.8 2-3.6 0.5-0.4 0-1.1-1.3-4-3.4-5.6-0.6-0.8-0.6-1-0.5-1.8-0.7-0.8-0.8-0.7-0.5-0.7-0.6-1.4 0.1-0.9 1.3-1.9 0.4-0.5 0.5-0.3 0.5-0.2 0.5 0 0.3-0.2 0.5-1.5 0.4-0.4 0.8-0.4 0.5-0.4 0.2-0.5 0.3-1.3 0.5-0.3 0.3-0.3 0.3-0.3 1.9-0.7 0.4-0.2 2.2-2.8 0.4-0.6 0.5-0.1 5.1-3.2 0.7-0.2 0.5-0.5 0.6-1 0.5-1.2 0.2-0.9 0-0.8-0.2-0.6-0.3-0.5-0.2-0.6 0-0.4 0-3.7-0.1-1-0.5-1-2.8-4-1.6-1.6-1.8-1.3-1.8-0.5-1.7 0.7-1.6 1.4-0.9 1.1-0.7-1.2 0-2.5 3.9-4.5 0.9-0.5 1 0.2 1 0.4 2.1-0.4 2 0.6 1.9 0 2.3-0.6 2.1 0.7 1.6 1.7 1.8 1.1 2.4 0.1 2.4-0.3z" id="TR31" name="Hatay">
  </path>
  <text x="538" y="370" font-size="9" font-family="sans-serif" fill="white">HAT</text>

  <path d="M163.8 57.8l0.1 0 2.2-3 1.4 1.3 7.2 4.6 10.3 4.4 14.6 7 4.7 1.1 0.2 0.1 0.1 0.1 0.2 0.2 0.3 0 0.3-0.1 0.3-0.6 0.4-0.1 1.1 0.1 1.2 0.5 0.7 0.7-0.4 1.6-0.7 1.1-0.8 1.1-0.8 0.5-0.6 0.2 0.2 0.4 0.4 0.5 0.2 0.5 0.3 0.4 0.1 0.1 0.3 0.2-0.1 0.4-0.2 0.3-0.1 0-0.2 1.2-0.3 1.2-0.5 0.9-0.5 0.8-0.4 0.3-0.8 0.3-0.4 0.3-0.4 0.6-0.1 0.3 0.1 0.3 0 0.2 0.2 0.3-0.1 0.3-0.2 0.4-0.2 0-1.1-0.1-0.4-0.3-0.2-0.1-0.3 0.2-0.4 0.6-0.2 0.1-0.5 0.1-0.9 0.6-1.9 0.4-0.4 0.2-0.3 0.2-0.2 0.3-0.3 0.2-0.5 0.1-1.2 0-0.6-0.2-0.2-0.4-0.5-0.5-1.2 0-5.7 0.7-1.4-0.6 0.4-2-0.6-0.6-0.3-0.2-0.4-0.1 0.3-1.4-0.5-1.3-1-0.8-1.1-0.3 0.2 0.9 1.1 1 0.3 1.1 0 0.6-0.1 0.9-0.3 0.9-0.6 0.6-1.3-0.2-2.5-2.5-1.2-0.7-1.6-0.3-3.3-1.2-1.6-0.2-1.6 0-0.4-0.2-0.5-0.6-0.4-0.1-1.8 0.4-0.9 0-0.3-0.2-0.5-3.5-0.7-4.8 0.7-3.8 1.4-5.2-0.5-4.2-1.3-4.5z m52.2 38.9l-0.6-0.4-1 0.2-0.9-0.9-2.7-1.3-1-0.8-1-1.2-0.9-0.8-2.7-1.5 0.2-0.1 0.1 0 0-0.1 0.1-0.2-0.6-0.3-0.2-0.6-0.2-0.9-0.3-0.8 0.8-0.5 1-1.1 0.8-1.3 0.6-2.4 0.6-0.9 0.1-0.8-1-0.7 1.1-1.7 1.8-2 1.9-1.4 1.4 0.3 0.3 0 0.5-0.7 0.7-0.1 8.9 1.7 9.5 2.2 12.6 1.9-1 0.5 0.5 1.9 0.2 2-1.4 3.2-2.5 1.4-3.1 1.2-2.7 1.9-0.5 1.5-0.8 1.5-1.7 0.2-1.4-1.2-1.4-3.1-2.3-1.9-2.5-0.2-2.1 1.5-2 2-1.1 0.6-2.5 2.1-1.6 2.1z" id="TR34" name="Istanbul">
  </path>
  <text x="178" y="80" font-size="9" font-family="sans-serif" fill="white">IST</text>

  <path d="M99.9 68.1l7.2-1.6 7.7-0.6 5.5 0 2.7 1.8 2.1 2.8 2.6 1.7 3.1-0.8 2.7-2.1 1.7-3.5 2.3-3.4 4.6-1.4 5.2-1.2 8.2-1.1 8.3-0.9 1.3 4.5 0.5 4.2-1.4 5.2-0.7 3.8 0.7 4.8 0.5 3.5-0.4-0.2-2.3 0.8-0.4 0.3-0.4 0-2.6 1-0.7 0.2-0.9 0.5-0.7 0.5-0.5 0.5-1.1 1.8-0.3 0.8 0.1 0.5-0.9 0.2-3.8-0.4-0.7-0.5-0.7-0.6-0.8-0.4-1.8-0.6-1.8-0.1-10.2 1.5-1.4 0.9-1.1 2.1-1.2 5-1 1.9-4.5 4.4-2 3.6-4.3 3.2-0.2 0.3-0.5 0.7-0.2 0.3-0.5 0.1-1.2 0.2-1.3 0.9-2.2-0.1-1 0.1-0.8 0.7-1.4 2-0.6 0.4-1.2 0.1-1.5-4.6 0-5-6.9-0.7-1.2-4.1-1.8-3.9-0.3-5.1 0.8-4.4 1.5-3.8 2.3-3 0.7-3.8-0.3-8.8-0.6-1.1z" id="TR59" name="Tekirdag">
  </path>
  <text x="119" y="85" font-size="9" font-family="sans-serif" fill="white">TEK</text>

  <path d="M98.5 110.3l0-0.3 0.3-3.7 0-0.2 6.9 0.7 0 5 1.5 4.6-0.6 0.1-1.9 0.6-2.7 1.7-0.7 0.7-0.9 0.6-2.9 0.4-0.9 0.5-1.5 1.4-0.7 0.3-0.5 0.3-0.4 1.9-0.5 0.8-1.6 0.8-0.3 0.5-0.1 1-0.3 1-0.7 0.9-2.6 2.4-0.3 0.2-1.4 0.3-0.6 0.6-1 1-0.1 0.2-0.2 0.3-1.2 1.5-0.9 0.7-1.1 0.6-1.1 0.6-1 0.1-0.6 0.6 0.1 1.1 0.6 1.2 0.7 0.5-2.3 2.2-0.7 0.5-1.9 1.1-1.4 1.4-0.6 0.3-2.5 0.9-0.5 0.1-0.5-0.4 0.1-0.7 0.4-0.7 0.3-0.4 0.8-0.6 0.5-1.3 0.4-1.3 0.2-0.6 2.2-3 0.6-2.2-0.3-1.7-0.9-1.4-1.4-1.1 0.5-0.4 0.2-0.4-0.3-0.3-0.6-0.1-0.2-0.3 0.4-0.6 0.7-0.6 0.3-0.1 0.5-0.5 2.5-0.9 0.9 0 0.7-1.3 2.4-1.5 2.2-1.9 2.8-1 2.1-1.8 1.4-0.9 1.4-0.7 1.3-0.3 2.3 0.3 0.6-0.3 0.7-0.7 1-1.6 0.6-0.7 1.2 0.5 1.5-0.5 1.3-1.1 0.6-1.3-1.4-3.1-0.4-0.6-0.5 0.1z m-5.4 68.8l-10 1.9-1 0.4-0.5 0.5-0.5 0-2.1 1.2-0.4 0.3-0.5 0-2.5-0.5-0.5 0.1-0.7 0.3-0.5 0.1-0.4 0.5-0.1 0.2-0.1 0.3-0.3-0.2-0.5-0.4-3.8 1-1.9 0-1.8-1-0.2-1.3 1.2-3.2 0.7-3.1 1.8-1.7 0.4-1.4 0.3-3.4-0.2-0.7-0.9-1.7-0.2-0.8 0.1-0.6 0.2-0.2 0.2-0.1 0.2-0.4 0-1.4 0.2-1.7-0.2-0.5-0.7-0.2 0.3-0.7 0.7-3.1 0-0.3-0.3-1.3 0-0.5 0.1-0.6 0.4-0.8 0.1-0.5 0.2-0.6 1-1.7 0.4-0.5 2.6 0.9 0.7-0.5 1.6-0.7 0.5-0.3 2-2.1 0.4-0.7 0.2-0.5 0-0.8 0.2-0.4 0-0.2 0-0.3 0-0.2 0.1-0.1 0.6 0 0.2-0.1 0.2-0.1 0.3-0.8 0.2-1.2 0-1.1-0.3-1 0.3-0.9 0.2-0.4 0.3 0 0.7 0 0.6-0.1 1.2-0.6 1.6-0.5 0.9-0.7 2.1-2.8 0.4-0.3 0.5-0.1 0.6-0.4 0.6-0.5 5.1-6.2 1-0.8 1.9-0.1 4.1 0.3 1.7-0.4 0.5 0.2 1.2 0.7 2.7 0.2 1.1-0.2 1.3-1.1 1.2-1.5 1.4-1.2 2.2-0.1 1.6 0.4 1.9 0 1-0.2 1.6-1 0.8-0.1 0.7 0.7 0.5 0.9 0.7 1.9-0.6 0.4-0.3 0-0.3-0.3 0 0.1-0.4 0.2 2.1 2.3 2.6 1.7 2.8 1.3 3.4 0.8 1.3 0 0.5-0.1 0.5-0.3 0.2 0.5-0.5 2.8-2.3 1.3-3.3 3.5-0.8 0.3-0.5 0.4 0.9 1.9 1.9 0.8 0.8 0.1 0.2 0.4-0.3 1.2-0.6 2.1-0.2 1.6-0.5 1.4-0.4 0.5-0.5 1 0.9 1.4 0.8 0.6-0.3 2.5-0.8 2.6-1 2.3-1.9 1.4-2 0.9-1.9 1.3-2 0.8-3.5-1.1-3.5-0.6-1.3 0.7-1.5-0.2-2.2 0-2 1.6-3.5 1.5-1.7 1.5-2.1 0.6-4.3-0.5-1.9 0.4-1.5 4.9 0.1 4.9z m-28.8-17.7l0.8-0.4 0.3 0.6-0.1 2.2-0.3 0.9-0.7-0.1-1.6-1.1-1.4-0.6-0.6-0.5-0.3-0.8 0.4-0.5 0.8-0.1 1.7 0 0.3 0 0.3 0 0.2 0.1 0.2 0.3z m-2.3-20.4l0 1.3-1 0.6-1.1 0.4-3.2 0.5-2.1 0.9-4.3 0.6-0.9 0-1.2-0.4-0.6-0.3-0.2-0.4-1.9-0.7 0-0.3 1-1.8 1.6-1.6 1.9-1.3 3.2-0.6 4.1-1.5 0.6-0.1 0.6 0.1 0.3 0.3 0.3 0.4 0.3 0.4 0.7 0.1 0 0.5-0.1 0.5-0.1 0.8 0 0.8 0.2 0.4-0.4 1 0.5 0.3 0.8-0.3 0.7-0.6 0.3 0z" id="TR17" name="Çanakkale">
  </path>
  <text x="90" y="150" font-size="9" font-family="sans-serif" fill="white">ÇNK</text>

  <path d="M783.2 69.9l0.1 0.2 1.3 3.3 0.4 2.5 0.9 2.1 0.9 0.9 0.9 0.6 0.6 1.1 0.5 1.1 1.9 0.9 1.4 1.6-1.3 2.9-2.6 1.7-0.7 1.3-0.4 1.3-1 0.9-1.1 0.6-4.5 5.3-0.7 2.5-3.6 2.1-5.1 4.4-2 0.7-2.1 0-1.7 0.7-1.4 3.6-2.9 0.8-1.9 0.2-1.9 0.6-7.7 3.8-0.7-3.9 0.6-4.3-3-7.6-0.5-4.4-1.2-4.2-1.7-3.9 5.3-3.6 1.7 0.8 1.4 0.1 1.3-0.4 1.5-0.9 1.8-1.6 0.6-0.1 1.5-0.2 0.7-0.3 0.6-0.4 2.8-3.8 3.4-2.5 0.5-0.2 0.7 0.2 2.1 0.7 1.2-0.2 1.8-1.3 0.7-0.3 1-0.1 1.1-0.4 1.1-0.5 0.9-0.7 1.8-2 1-0.7 1.2-0.3 1.3 0 0.8-0.3 0.4-0.4z" id="TR53" name="Rize">
  </path>
  <text x="750" y="100" font-size="9" font-family="sans-serif" fill="white">RZE</text>


  <path d="M743 89.3l1.7 3.9 1.2 4.2 0.5 4.4 3 7.6-0.6 4.3 0.7 3.9-0.9 0.2-1.9 0.6-4.9 0-2.4 0.4-2.3 0.8-2.1 0-3.9-1.3-4.1-0.1-1.9-1.1-2.9-3.3-1.5-0.5-0.3 0.2-0.6 0.6 0.3 1.5-0.7 0.8-1 0.1-2.3-3.9-3.3-2.2-1.4 1.1-0.6 2.6-0.7 0.8-1 0.2-2.8-0.3-11.1-4.5-3.2-3.3-0.7-3.7-2-1.2-0.8 1.1-1 0.9-1-0.1-0.9-0.7-0.8-2.4-0.4-5.8 0.1-3.1 1.3-7.6 0.4-0.4 0.6-0.1 1.5 0.1 0.9 0.3 1.5 1.3 1.1 0.1 0.8-0.2 1.2-0.9 1-0.1 0.6-0.2 2.5-1.6 0.3-0.2 0.2-0.3 0.2-0.2 0.6-0.2 3 0.8 0.7 0.6 1.2 1.7 2.8 2.4 1.8 1.1 1.9 0.4 0.9-0.4 1-0.4 1-0.2 1.2 1 0.6 0 1 0 0.4 0.1 2.9 2.3 0.8 0.4 0.9 0.2 0.8-0.6 3-1 1.1-0.2 2.8 2.6 1.3 0.9 2 0.4 0.8-0.1 1.4-0.6 1.1-0.3 1.7-0.6 1.1-0.8 2.2-0.6 2.4-1.6z" id="TR61" name="Trabzon">
  </path>
  <text x="710" y="105" font-size="9" font-family="sans-serif" fill="white">TRZ</text>

  <path d="M685.8 84.4l-1.3 7.6-0.1 3.1 0.4 5.8 0.8 2.4-5.7 0.7-0.3 0.7-0.2 0.9-0.9 0.5-1.2 0.3-1.4 1.2-1.5 1-0.6 1.6 0.6 1.9-0.9 1.7-1.4 1.5-0.5 0.7-0.1 0.5-0.3 2.8 0.1 2.2 1.3 1.6 5.6 1.4 1.3 1.1 1.3 1.3 1.1 0.3-0.3 2.3-1.4 1.2-4.8 2.6-1 1.3-0.1 2.1 0.2 2.1-0.2 2.2 0.4 2.2 1.3 1.7-0.4 2-1.9 0.9-4.2 0.3-2-0.1-4.8-2.4-5-1.6-4.8 1.2-3-1.8-2.9-2.2-2.7-1.4-1.7-2.6 0.1-3.5-3.9-14.9-4.5-5.1 0.2-1.7 0.6-1.2 0.2-2.1-0.2-2.1 0.2-2.1-0.2-2.1-0.8-1.8 0-2 0.8-1.5 1-1.2 0.7-1.9-0.1-2.2 0-0.2 2.3 0.3 1.9 0.7 1 0 2.1-0.6 0.9 0.2 2.1 1.9 1 0 1.8-0.6 1.8 0.5 1.2 0.2 0.5-0.5 3.6-0.2 0.7-0.5 1.8-1.7 0.6-0.4 1.5-0.5 0.6 0.1 0.3 0.2 0.8 1.1 0.3 0.4 0.5-0.3 0.9 0 0.5-0.1 0.3-0.3 0.4-0.4 0.5-0.4 0.6-0.2 0.9-1.2 0.2-0.3 0.2-0.2 1.1-0.4 3.3-0.7 0.8-0.5 0.7-0.7 0.9-0.3 5.5 0 3.8-0.9 0.4-0.3 0.8-0.6z" id="TR28" name="Giresun">
  </path>
  <text x="650" y="108" font-size="9" font-family="sans-serif" fill="white">GIR</text>

  <path d="M636.7 91.6l0 0.2 0.1 2.2-0.7 1.9-1 1.2-0.8 1.5 0 2 0.8 1.8 0.2 2.1-0.2 2.1 0.2 2.1-0.2 2.1-0.6 1.2-0.2 1.7 4.5 5.1-1.4 1.2-1.6 0.8-2.2 0.2-1.9 0.4-0.5 0.8-0.1 1.8 0.5 0.7-0.2 1.1-1 0.6-4-0.2-1.7 1.3-1.4 1.9-1.4 1.1-1.7 0.2-3.6-2.9-2.6-5.1-0.9-3.8-1.6-3-6.4-0.4-10.9-7.6-3.1-0.3-3.3 0.5-3.4-0.3-3.1-1.3-2.5-1.5-3.9-1.4-2.7-1.6-2.1-0.5-0.6-0.4-0.5-1.9 0.8-1.6 1-0.3 0.9-0.5 2.1-0.2 1.9-0.6 1.7-1 0.7-0.6 1.9-2.1 3.8-2.1 2-3.9 2.7-2.8 2.5-3.5 0-0.3 5.3-0.1 1.7 0.5 1.1 1 0.5 0.3 1 0.3 1.2 0.1 0.8 0.3 1.1 1.3 0.8 0.6 2 0.7 0.2 0.3 1.1 1.2 0.9 0.4 1.9-0.2 0.8 0.2 0.3-0.3 0.6-0.3 0.4-0.3 0.3-0.5 0.6-1.6 0.6-1.1 0.7-1 0.8-0.8 0.9-0.6 0.4 1 0.8 0.6 0.9 0 0.8-0.7 0.3 0.4 1.2-0.2 0.1 3.9 0.8 1.1 2.5 1.2 0.6 0.5 0.5 0.7 0.8 1.4 1.9-0.8 2.2 0.3 5.8 2 0.5 0.1z" id="TR52" name="Ordu">
  </path>
  <text x="600" y="108" font-size="9" font-family="sans-serif" fill="white">ORD</text>

  <path d="M591 79.7l0 0.3-2.5 3.5-2.7 2.8-2 3.9-3.8 2.1-1.9 2.1-0.7 0.6-1.7 1-1.9 0.6-2.1 0.2-0.9 0.5-1 0.3-0.8-1.6-1.7-1.1-2.5-0.1-0.3-0.2-0.3 0.4-1.6 0.8-5.2 1.3-5.1-3.7-0.8-1.4-0.6-1.4-1.3-1.5-1.7-0.6-1.9 1.2-0.9 2.9-1.4 2.5-2.2 1.5-1.7 1.4-2 0.5-3.7-1.8-6.3-0.1-1.8-0.3-3.6 0.2-1.6-0.4-1.6-2.8-6.9-5.3-1.6-0.9-2.9 0.5-14.7-4.2-1.8-0.4-3.7 0.4-0.7-2.3-0.3-2.5-0.6-2.3-2.5-4.4 0.8-0.6 1.1-0.5 0.7-0.8-0.4-1.1 0.5-0.5 0.4-0.3 1.2-0.1 0.6-0.2 1.6-1.5 2.5-1 1.2-0.7 0.5-0.9 0.5 0.5 0.4 0.9 0.3 1.2 0.1 1.1 0.3 0.6 0.8 0.5 1.5 0.8-0.5 0.8 0.5 0.3 2.1 0.3 0.4 0.2 0.8 0.9 1.5 0.8 2.1 0.3 2-0.4 1.5-1 0.9-0.4 2.5 0.6 0.9-0.7-0.4-3.8-0.3-1.8-0.6-1.3-0.3-1.5 0.2-1.9-0.1-1.8-0.8-3.1 0.2-3.2 1.9-4.2 1.4 0.4 2.2 0.3 2.1-0.2 1-0.4 1.8-1.1 2.9-0.5 5-2.2 1.2-0.2 1.1-0.3 1.9-1.6 1.1-0.3 0 0.5-0.2 0.4-0.3 0.3-0.4 0.4-0.5 0.2 0.1 0.9-0.9 2 0.2 1.1 0.4 0 0.1-1.6 0.4-1.4 0.6-1.1 0.7-0.8 0.5-0.4 0.3-0.1 2.8 2.7 0-0.9 0.4 0 3.5 4.7 0.7 1.9 0 2.5-0.2 0.7-0.4 1 0 0.3-0.1 2.1 0.2 1 0.5 1.1 2.1 2.6 1.2 0.9 1.6 3 0.7 0.6 2.4 1.3 1.4 0.3 0.2 0.3 0.2 0.5 0 0.7 0.1 0.7 0.4 0.3 0.6 0.2 0.5 0.3 0.3 0.3 0.4 0.7 0.3 0.3 0.5 0.1 0.8 0.2 0.5 0.3 0.8 0.4 1.2-0.3 2-1.1 2.5-2.3 0.4-0.6 0.2-0.6 0.7-1.1 0.1-0.4 0.1-0.2 0.3-1.3-0.1-0.1 0.7-0.5 0.6 0 0.8 0.3 1 0.2 4.1 0 3.8 1 7 3.5 1.4 1.3 0.8 2 0.1 2.8 0.3 1.1 0.8 0.4 1 0.3 1.8 1.1 0.9 0.4 0.8 0z" id="TR55" name="Samsun">
  </path>
  <text x="526" y="79" font-size="9" font-family="sans-serif" fill="white">SAM</text>

  <path d="M512.6 48.4l-1.9 4.2-0.2 3.2 0.8 3.1 0.1 1.8-0.2 1.9 0.3 1.5 0.6 1.3 0.3 1.8 0.4 3.8-0.9 0.7-2.5-0.6-0.9 0.4-1.5 1-2 0.4-2.1-0.3-1.5-0.8-0.8-0.9-0.4-0.2-2.1-0.3-0.5-0.3 0.5-0.8-1.5-0.8-0.8-0.5-0.3-0.6-0.1-1.1-0.3-1.2-0.4-0.9-0.5-0.5-0.5 0.9-1.2 0.7-2.5 1-1.6 1.5-0.6 0.2-1.2 0.1-0.4 0.3-0.5 0.5 0.4 1.1-0.7 0.8-1.1 0.5-0.8 0.6-0.1 0.4-0.1 1.1-0.1 0.5-0.2 0.3-0.9 0.8-1 1.2-5.4-1.7-0.8-0.6-0.5-0.9-1.2-0.9-1.4-0.3-1.6 0.4-1.6-0.3-0.8-0.9-1-0.2-1.8 0.1-1.2-1.6 0.3-8.3-0.5-1.2-0.3-1.2 0.5-2.4 0.9-2.2 1.4-1.4 1.5-1 1.7-4.3-2.7-3.5-3.1-0.9-5.8-0.3-2.9-0.8-2-0.3-1.7 0.1-3.1-1.2 0.1-2.1 2.4-2.9 1.3-3.7-0.2-3.6 5.5 0.7 5.4-1.6 1.8-0.1 0.7 0.2 1.4 0.7 1.6 0.6 6.3 0.4 2.5-0.3 2.5-0.8 0.8-0.4 1.7-1.4 1.8-1.1 1.4-1.8 1.1-2.1 0.3-1.9 0.6 0.2 1.4 0.3 0.6 0.4 0.1-0.4 0.2-0.1 0.3 0 0.4 0 0.3 0.8 0.5 0.5 0.4 0.4-0.3 0.5 0 0.4 1.8 1.4 1.1 0.5 1.4-0.1 0.5-0.3 0.8-0.8 0.5-0.2 0.7 0.1 0.4 0.3 1 0.9 0 0.4-2.5-0.3-1.2 0.2-1 0.8-0.5 0.9-0.4 1.4-0.2 1.5-0.1 1.2 0.3 1 1.3 2.4 1.4 1.9 2.6 2.1 0 0.5-0.7 0 0.3 0.8 0.5 1 0.6 0.9 1.4 0.7 1.4 1.7 0.7 0.6 2.8 1.1 2.1 0.4 0.8 0.5 1.5 1.4 1.7 1 0.7 0.3z" id="TR57" name="Sinop">
  </path>
  <text x="477" y="54" font-size="9" font-family="sans-serif" fill="white">SNP</text>

  <path d="M451.6 28.1l0.2 3.6-1.3 3.7-2.4 2.9-0.1 2.1 3.1 1.2 1.7-0.1 2 0.3 2.9 0.8 5.8 0.3 3.1 0.9 2.7 3.5-1.7 4.3-1.5 1-1.4 1.4-0.9 2.2-0.5 2.4 0.3 1.2 0.5 1.2-0.3 8.3-2.5 0.6-1.7 2.4-1.3 3.4-1.1 1.3-2.2 2-1.7 4.2-1.6 2-0.5 1.2 0.9 2.4 1 0.4 1.6 1.7-1.2 3.1-6.7 2.8-4.2 0.9-1.9-0.1-2-0.4-1.6-1.2-1.5-1.4-2.8-1-1.7-3 0.5-1.9 1.2-1.4 1.5-2-0.5-2.5-0.7-0.4-1.6 0.6-7.7 4.1-3.7 0.7-5 3-1.8 0.6-2.2-0.7-1.8-2.1-4.3-2.9-6.1-0.6-0.7-0.6-1.1-1.4-0.4-0.8-1-1.5-2.5-1.1-2.7-0.4-0.9-6.8 0.4-2.1 2.2-3 2.5-2.5 4.6-0.9-1.3-3.1-1.3-5.6-3.5-2.6-3.5 1.2-2.9 0.4-1.6-1.8-0.4-4.5 3-2.2-1.7-4.7-1.3-2.8-0.5-3.8 1.4-0.4 0.8-0.5 0.5 0.3 3.4-0.8 1.7-0.8 2.1-1.5 7.5-2.5 7.6-4 1.7-0.1 3.5 0.6 5 0 1.1 0.2 2.4 0.9 10.1 1 0.9-0.3 1.3 0.5 6.2-0.5 10.1 1.5z" id="TR37" name="Kastamonu">
  </path>
  <text x="410" y="58" font-size="9" font-family="sans-serif" fill="white">KAS</text>

  <path d="M384.3 34.5l0.5 3.8 1.3 2.8 1.7 4.7-3 2.2 0.4 4.5-4.5 4.3-2.7 0.8-2.1 4.6-5.7 4.8-5 1.3-5.2-0.2 1-5.4-1.8-4.4-0.9-3.3-2.9-1.3-2.7-2.7 1.4-0.8 0.7-1.6 3.1-3.5 0.3-0.3 0.7-1.4 1.6-0.5 2.6-0.1 0.1-0.4 0.4-0.2 0.5-0.3 0-0.4 0.2-0.3 0.2-0.1 0.3 0.1 0.4 0.6 0.2 0.1 0.8-0.4 1-1.2 0.7-0.6 3.3-1.7 0.6-0.4 0.6-0.3 0.7-0.1 0.7 0.3 0.6-0.9 1.1-0.8 1.2-0.3 1.2 0.5 0.7 0 2.9-1.1 0.7-0.4 0.7 0.1 1.4-0.1z" id="TR74" name="Bartın">
  </path>
  <text x="360" y="53" font-size="9" font-family="sans-serif" fill="white">BAR</text>

  <path d="M352.7 51l2.7 2.7 2.9 1.3 0.9 3.3 1.8 4.4-1 5.4-2.5 3.5-1.7 2.1-0.8 3.3-1.5 5.1 0 5.6-10.2-0.3-3-0.8-3.5-0.3-11.5-1.1-8.2-4-1.8-1.8 1.6-1.5 0.6-0.9 0.4-0.8 0.2-1 0.1-1.4 0.1-0.5 0.4-1.3 0.1-0.8-0.2-0.3-0.9-0.6-0.2-0.5 0.5-0.8 1.1-0.4 2.2-0.2 0.2-0.2 0.8-1.2 0.2-0.3 0.5-0.1 7.2-2.8 10.1-6.8 5.8-2.8 1.7-1.4 0.4-0.3 4.5-1.5z" id="TR67" name="Zinguldak">
  </path>
  <text x="330" y="76" font-size="9" font-family="sans-serif" fill="white">ZON</text>

  <path d="M315.3 79.4l1.8 1.8 8.2 4 11.5 1.1-0.8 5.5-2.3 2.7-4.4 1.1-6.1 1-2.3 1.8-0.2 3.3-1.8 4.5-3.6 2.8-4.6 0.5-5.4-2.3-7.7 0.3-3.9-1.4 1-2-0.9-1.4-0.5-1.7 0.7-1.7-0.2-1.9-0.8-1.7-0.3-1.9 1.6-3.7 2.8-2.6-0.1-1.3-0.3-1.9 0.1-0.6 6.4-0.1 1.2-0.7 0.4-0.2 0.6 0.1 1 0.3 0.5 0 2-0.4 0.3 0.1 0.4 0.3 0.3 0 0.3-0.1 0.1-0.2 0.1-0.3 0.3-0.2 2-0.8 1.5-1 1.1-1.1z" id="TR81" name="Düzce">
  </path>
  <text x="295" y="98" font-size="9" font-family="sans-serif" fill="white">DÜZ</text>
  <path d="M296.8 83.7l-0.1 0.6 0.3 1.9 0.1 1.3-2.8 2.6-1.6 3.7 0.3 1.9 0.8 1.7 0.2 1.9-0.7 1.7 0.5 1.7 0.9 1.4-1 2-3 2.3 0.1 2.1 0.4 1.9-0.6 1.9-3.1 1.5-3.3-0.2-1.9 2.9-1.3 3.9-0.8 0.4-0.6 0.7 0.3 1.6 1 1.2 1.1 2.2-0.9 2.3-2.5-0.6-3.5 0.1-0.8-0.7-1.2-1.8-1.5-0.9-1.8 0-1.7-0.5-2.1 0.2-6.6 1.7-4.2-1.3-1.7-1.9-1.9-1.6-1.7-2.5-1.3-2.8-0.5-1.3-0.2-1.5 3.3-0.3 1.5-0.5 1.5-0.9 3.1-0.7 2.8-1.9 1.9-3.9 1.9-9.3 3.1-3.3-0.6-0.4-0.6-0.2-0.4-1.4 0.9-0.5 1.8 0.4 1.6 0.7 2.6-0.1 0.9-0.1 0.3-2.2 1.1-1.9-0.3-2.1-3.4-0.6-0.9-3.2 1.5-3.9 0.3-0.9 12.8 3.1 1.6 1.4 0.7 0.4 4.1 0.8 5.8-0.2z" id="TR54" name="Sakarya">
  </path>
  <text x="265" y="110" font-size="9" font-family="sans-serif" fill="white">SAK</text>

  <path d="M216 96.7l1.6-2.1 2.5-2.1 1.1-0.6 2-2 2.1-1.5 2.5 0.2 2.3 1.9 1.4 3.1 1.4 1.2 1.7-0.2 0.8-1.5 0.5-1.5 2.7-1.9 3.1-1.2 2.5-1.4 1.4-3.2-0.2-2-0.5-1.9 1-0.5 12 0.4 1.3-0.2 0.7-0.3 1.2-0.8 0.6-0.2 0.4-0.4 0.4-0.7 0.3-0.5 0.4 0.3 0.5-0.5 0.6-1 0.5-0.3 0.6 0.5 2 0.5 1.6 1.2 2.8 0.7-0.3 0.9-1.5 3.9 0.9 3.2 3.4 0.6 0.3 2.1-1.1 1.9-0.3 2.2-0.9 0.1-2.6 0.1-1.6-0.7-1.8-0.4-0.9 0.5 0.4 1.4 0.6 0.2 0.6 0.4-3.1 3.3-1.9 9.3-1.9 3.9-2.8 1.9-3.1 0.7-1.5 0.9-1.5 0.5-3.3 0.3-6.5-2.3-3.3 0.6-8.8 3.3-2.7 0.2-2.7-0.9 0.4-2.4 0-5.6 0.4-0.3 0.6-0.2 0.5-0.3 0.2-0.5 0.2-0.4 0.5-0.4 0.5-0.2 0.5-0.1 0.5 0.1 0.8 0.4 0.7 0.7 0.3 1.2 0.5 0 9.2-2.1 5.4-0.3 1.7 0.8 1 0 0.7-1.1-0.5-1.5-1.8-0.3-3.9 0.5-0.3 0.1-0.3 0.1-0.4 0.2-0.6 0-0.5-0.3-1-0.8-0.3-0.2-0.7-0.2-1.7-0.6-1-0.1-11.2 0.5-0.9 0.3-0.8 0.6-0.8 0.3-0.9-0.4-0.4-0.5-0.2-0.6-0.3-0.4-0.5-0.2 0.2-0.1 0.1-0.2 0.2-0.1 0.2-0.1-0.2-0.6-0.3-0.4-0.3-0.4-0.5-0.2-0.2 0.3-0.5-0.3-0.4 0.3-0.5 0.2-1.3 0.3 0-0.4 0.5 0 0.3-0.3 0.1-0.4 0-0.6 0.5 0.3 0.2 0.1 0-0.2 0-0.2 0.1 0 0.2 0-0.5-0.9-1-1.1-0.4-0.4z" id="TR41" name="Kocaeli">
  </path>
  <text x="236" y="100" font-size="9" font-family="sans-serif" fill="white">KOC</text>

  <path d="M224.3 108.3l0 5.6-0.4 2.4-3-0.6-3 3.2-3 0.6-7.3-3.2-1.4 0.2-3.3-0.8 0.1 6.8-0.5 0.2-2.5-0.6-4.2-2.7-2.6-0.6 0.9-1.9 1.6-1.1 3.4-1.3 1.4-0.9 2-2.1 0.8-0.3 14-1.3 2-0.7 1.9-1.1 1-0.8 0.3 0 0.4 0.3 0.3 0.6 0.5 0.4 0.6-0.3z" id="TR77" name="Yalova">
  </path>
  <text x="206" y="115" font-size="9" font-family="sans-serif" fill="white">YAL</text>

  <path d="M247.9 115.4l0.2 1.5 0.5 1.3-2.5 1.4-1.1 0.8-0.9 1-0.9 1.7-0.2 2-0.5 1.7-0.6 1.5 0.2 1.9 1.1 1.4 0.2 1.7-0.8 1.7-4.6 4.9-1.3 6.2 0 3.1 2.5 3.6 1.3 1 0.6 3.1-2.3 0.8-2.7-0.5-1.5 0.1-1.3 0.7-1.5 0.2-1.6-0.1-4.9-2-2.4 1.7-1 3.7-0.5 1.4-1 1-1.3 5-2.2 1.6-1 2.8-0.3 4.1-2.6 1.6-3.4 0.1-3.4-0.4-2.1-0.5-1.8-1.4-1.1-1.3-1.5-0.6-2.2-0.1-2.2 0.4-1.8-0.3-1.2-1.8-0.7-0.5-0.9 0-0.5-0.4-0.3-0.7-0.9-1.5-0.1-1.7 0.2-1.3-0.7-1-1.3 0.5-1 1.1-3.8-0.5-12.5-9.3-0.9-1.9-0.8-4.3-0.9-1.6-2.6-1.8-1.7-2.8-0.9-2.3-0.2-1.2 0.6-2.4 0.6-1 0.5-1.2-0.9-2-1.1-0.3-0.4-2.1 1.3-1.3 1.4-1.1 2.3-3.5 0.2-0.5 6.6-0.2 2.5 0.4 4.1-0.2-0.5 0.1-0.4 0.3-0.3 0.3-0.1 0.6 1.9-0.7 2.2-0.1 2.3 0.6 2.1 1.1 0.3-0.4 0.2 0.1 0.1 0.2 0.4 0.1 0.4-0.2 0.5-0.5 0.4-0.2 2.7-0.5 0.7-0.6 0.7-0.4 0.9 0.2 1.6 0.5 1.5 0.1 1.3 0.3 0.7 0.3 1.1 0.7 0.8 0.3 0.8 0.1 3.7-0.1 0.9-0.2 0.6-0.5 0.4-0.8 0.4-1.7 0.4-0.7 0.6 0.3 0.8-0.1 0.8-0.2 0.7-0.4-0.8-1.1-1.1-0.9-1.1-0.7-1.1-0.3-2.6 0-0.4 0.2-1 0.9-0.1-6.8 3.3 0.8 1.4-0.2 7.3 3.2 3-0.6 3-3.2 3 0.6 2.7 0.9 2.7-0.2 8.8-3.3 3.3-0.6 6.5 2.3z" id="TR16" name="Bursa">
  </path>
  <text x="190" y="145" font-size="9" font-family="sans-serif" fill="white">BUR</text>

  <path d="M93.1 179.1l-0.1-4.9 1.5-4.9 1.9-0.4 4.3 0.5 2.1-0.6 1.7-1.5 3.5-1.5 2-1.6 2.2 0 1.5 0.2 1.3-0.7 3.5 0.6 3.5 1.1 2-0.8 1.9-1.3 2-0.9 1.9-1.4 1-2.3 0.8-2.6 0.3-2.5-0.8-0.6-0.9-1.4 0.5-1 0.4-0.5 0.5-1.4 0.2-1.6 0.6-2.1 0.3-1.2-0.2-0.4-0.8-0.1-1.9-0.8-0.9-1.9 0.5-0.4 0.8-0.3 3.3-3.5 2.3-1.3 0.5-2.8-0.2-0.5 1.2-0.8 0.7-0.2 1.4 0.3 1.1 0.5 1.1 0.3 1.2-0.7 0.9 0.5 1.5 0.1 1.2-0.3 1.2-1.7 2.5-1.4 0.8-1-0.9-0.1-2.4-0.8-0.7 0.4-0.4 0-0.2-0.6-0.1-0.6-0.2-0.2-0.3 0-0.3-0.3-0.3-0.5-0.2-0.2-0.2-0.4 0-0.8-0.1-0.4-0.4-0.1-0.4 0-0.4-0.1-1.5-1.6-0.5-0.6 0-0.4 0.6-0.2 0.5-0.4 0.7-0.9 0.5-0.2 0.5 0.2 0.4 0.1 0.4-0.8 0.9 1.2 0.1 0.2 0.4 0.1 0.2-0.2 0.1-0.2 0.4-0.2 7.9 1.3 2.1 0.7 1 1.1-0.9 1.4-4.1 2.1-1.2 1.1 0.2 1.6 1.7 0.5 3.9-0.4 4-1.5 4.6-0.2-0.2 0.5-2.3 3.5-1.4 1.1-1.3 1.3 0.4 2.1 1.1 0.3 0.9 2-0.5 1.2-0.6 1-0.6 2.4 0.2 1.2 0.9 2.3 1.7 2.8 2.6 1.8 0.9 1.6 0.8 4.3 0.9 1.9 12.5 9.3 3.8 0.5 1-1.1 1.3-0.5 0.7 1-0.2 1.3 0.1 1.7 0.9 1.5 0.3 0.7 0.5 0.4 0.9 0 0.7 0.5 1.2 1.8 1.8 0.3 2.2-0.4 2.2 0.1 1.5 0.6 1.1 1.3-0.9 1.8-0.3 1.2 0 1.2-0.3 0.7-0.6 0.6-0.6 1.8-0.6 4.3-1.1 1.8-1.1 1.4-0.4 0.9-1.4 2.6-1.6 1.1-3.5 1.2-1.8 0.9-0.4 2.1 0.2 0.8 0.2 1.5-0.4 0.6-4.1-0.6-4.4 2.2-1.8 0.5-1.8 0.2-2-0.2-1.9 0.4-1.3 1.7-1.8 1.1-2.1 0.4-2 0.8-2.1-0.7-2.5-5.5-3.9-4.3-0.3-0.9-0.8-0.4-3.5 1.3-1.9-0.9 0.6-2.1 1.4-2.6-1.2-1.9-0.8 0-1.5 0.3-0.7-0.1-1.9-0.9-2-0.2-3.3 0.5-3.3-1-2.1-1.7-2.2-1-3.6 1.9-1.4-2.7-2.1-1.9-2.6-0.6-8.7 5.6-1.5 0.6-1.3 0.8-0.9 1.3-0.8 1.4-1 1-10.2 7.4-0.3-0.2-1-0.7-0.6-0.8 0-0.6-0.3-1.2-0.3-1.2-0.3-1-0.8-0.4-2.3 0.2-1.2-0.1-0.9-0.4 0.5-0.5 0.2-1.3 0.4-0.6 0.6-0.2 0.4 0.2 0 0.4-0.9 0.3 0 0.3 0.6 0 0.4 0.2 0.4 0.3 0.3 0.4-0.3-0.9 0.3-0.5 0.5-0.3 0.5-0.4 0.8-1.2 5-3.9-0.4-0.3-0.2-0.1 0-0.4 0.1-0.4 0-0.3-0.1-0.6 1.7-0.1 0.6-0.2 0.6-0.5-0.5-0.9 0.8-0.6 2.7-0.9 0.2-0.1 0-0.2 0.1-0.7 0.6-2.3 0-1.3-0.3-0.8-0.8-0.5-1.3-0.1-1.1 0.4-0.9 0.9-0.9 0.4-1.2-0.9-6.7 1.2z m47.1-68.4l0.7-0.2 1.4 0.2 1.2 0.6 0.2 1.1-0.9 0.7-1.7 0.3-0.9 0.3-1.6 1.4-0.9 0.4-1.1-0.5-0.5 0-1-0.4-0.7-0.7 0.1-1.3-0.3-0.5-0.3-0.5 0.2-0.7 0.4-0.4 0.4-0.3 0.2 0.2 0.2 0.7 1.1-0.6 1.3-0.4 1.2-0.1 1.3 0.7z m-0.6 12.1l0.3-0.1 0.2 0.2 0 0.5-0.5 0.1-0.7-0.4-0.8-0.1-0.8-0.1-0.7-0.5-0.1-0.7 0.5-0.4 0.4-0.8 0.4-0.6 1.5 0.7 0.1 0.5-0.2 0.5-0.1 0.7 0.5 0.5z" id="TR10" name="Balikesir">
  </path>
  <text x="150" y="180" font-size="9" font-family="sans-serif" fill="white">BAL</text>

  <path d="M98.4 202.5l10.2-7.4 1-1 0.8-1.4 0.9-1.3 1.3-0.8 1.5-0.6 8.7-5.6 2.6 0.6 2.1 1.9 1.4 2.7 1.8 4.7 1.6 7.4 0.8 2.2 1.7 3.3-0.3 3.2-1.3 1.5-3.1 2.6-3 1.2-2.6 1.8-0.6 2.2-0.3 2.4-0.8 2-1.5 1.5-1.3 2.2-0.2 1.3 1.3 1.3 0.7 0.3 1.1 1.4 1.3 4.2 2.8 2.5 3.3 0.3 5.4-0.2 0.9 0.2 1.5 1.4 0.8 3.4 3.3 2.3 3.7 1.7 0.4 0.9 0.5 1.9 0.4 0.9 2 1.9 2.4-0.6 1.1-2 0.8-1.9 2.3 0.1 2.3 1 1.4 0.1 1.4-0.4 2 2.1 1.3 3 4.6-0.7 1.8-0.6 1.3 0.2 0.9 1.1 1.7 0.5 1.1 0.1 2.1 0.6 1.3 1.7 2 6.2 2.1 3.2-7.5 2.7-1.9 0.3-1.9 0.6-1.6 0.9-1.7 0.7-9.2 0.1-11 3-11.7-1-2.4 0.4-5.8 3.9-3.8 1.4-3.1 0.1-0.1 0 0-0.3 0.1-0.5 0-0.5-0.2-0.5 0.7-0.6-0.4-1.4-1.3-2.2-1.2 0.4-1.7 0-1.8-0.3-1.1-0.4-0.3-0.4-0.2-0.4-0.2-0.4-0.5-0.1-0.4 0-0.4-0.1-0.2-0.2-0.1-0.3-0.2-1-0.4-0.3-1.4-0.2-2.4-0.9-1.3-0.2-1.5 0.3-0.8 0.4-0.3 0-0.3 0.2-0.1 0.4-0.2 0.5-0.4 0.2-0.4-0.3-1.1-2.2 0.3-0.8-0.1-0.8-0.2-0.9-0.3-0.8-0.5-0.8-1-1.1-0.5-0.6-0.8 0.4-0.2-0.7 0.1-1.8-0.7-0.6-0.7 0.1-0.8 0.3-0.9 0.2-3 0-0.5 0.2-0.6 3.9-0.2-0.1 0-0.1-0.1-0.1-0.3 0 0.1 0.8 0 0.8-0.2 0.6-0.6 0.2-0.3-0.2-0.6-1.5-0.4-0.7 0 1.2-0.5 0.1-0.7-0.5-0.9-1-0.3-0.5-0.1-0.6 0.2-0.8-1.3 0.3-1.2-1-1.2-1.3-1.1-0.5 0.2 0.9 0.1 0.3-0.3 0-0.3-0.4-1-1 0.1-0.6 0.1-0.6 0-0.5-0.2-0.6-0.4 0-0.3 1.6-1 0.4-1.2-0.4-1.6-1.3-0.4-0.3-2.5-0.7-0.1-0.4 0.3-1 1.2 0.6 0.6-0.8 0.4-1.1 1.1-0.3 0-0.5-0.9-0.6-0.2-1.1 0.4-0.6 0.7 0.7 0-0.6 0.2-0.2 0.1-0.2 0.3-0.2 0.2 0.7 0 0.7-0.1 0.5-0.4 0.6 0.2 0.1 0.3 0.2 0.2 0 0.4 0 0.4 0.1 0.1 0.3 0.1 0.3 0.3 0.2 0.6 0 0.7-0.1 0.4-0.4-0.5-0.7 0-0.5 0.8 0.5 0.3 0 0.6 0 0.5-0.3 1.2-0.8 0.4-0.2 0.6-0.6 0.1-1.2-0.4-1.2-0.8-0.7 0-0.5 1.2 0.6 0.6 0.6 0.4 0 0.7-1.6-0.7-0.4-1.1-1.1-1-0.3-0.6-0.6-0.5-0.1-0.4 0.3-0.4 0.8-0.3 0.2-0.9-0.1 0-0.2 0.4-0.6 0.3-1.2-0.2-0.7-1.4-2.2 0.3 0.4-0.1-0.7-0.6-1.8-0.1-0.4 0-0.4-0.5-2.3 0-0.9 0.1-0.9 0.3-0.7 0.4-0.2 0.7-0.2 1.1-0.5 0.5-0.1 1.3 0.1 1.2 0.3 1 0.5 0.9 0.7 1.6 1.8 0.7 1.1 0.3 0.9 1.1 1.8 1.2 1.5 0.4 0.4 0.3 0.3 0.3 0.3 0.2 0.7 0.1 0.6 0 0.6 0 0.6 0.3 0.6-0.3 0.3-0.2 0.1-0.2 0-0.3-0.3-0.5-0.1-0.6 0.1-0.5 0.3 0.8 0.5 0 0.5-0.4 0.7-0.4 0.9 1.1 0.1 0.5 0.7 0.3 0.9 0.5 1 0.8 2.7 0.8 1.3 1-0.3 0.3-0.8-0.3-0.5-0.8-0.6-0.3-2.5 0.2-1 0.6-1.1 0.7-0.6 0.8 0.2 0-0.4 0.3 0 0.5 0.6 0.6 1.1 0.9 2.5 0.2-0.1 0.5-0.2 0.2-0.1 0.4 0.7 0.7-0.1 0.8-0.4 0.9-0.2 3.8-0.4 2.3-1.1 0.7-0.2 0.3-0.1 0.6-0.6 0.3-0.1 0.5 0 0.4 0.2 0.5 0.1 0.5-0.3 0.1 0.2 0.2-0.2 1.3 0.6 1.1-0.7 1.2-1.2 1.3-0.8 0-0.4-0.4-0.4-0.2 0.1-0.4 0.3-0.3-0.5-0.9 0.5-1.6-0.2-0.4 0.2-1.2-0.6-1.3 0-3 1.3-1 0.5-0.1-0.1 0.4-0.7-0.8-0.6-1.4-2.3-0.7-0.4-1.2-0.4-0.4-0.3-1.1-0.8-0.6-1 0.7 0.7 0.9 0.6 1.3 0.8 0.7 0 0-0.4-0.6-0.7-0.6-0.6-0.6-0.4-0.8-0.4 0.2-0.7 0.3-1.5 0.2-0.8-0.7-0.6-0.5 0.2-0.5 0.4-1 0 0.2-0.6 0.2-0.2-1-0.4-0.6-0.1-0.7 0.1 0.1-0.3 0.1-0.7 0.1-0.2-0.6-0.1-0.5-0.2-0.8-0.6 0.3-0.4 0.4-0.3 0.4-0.1 0.5 0-0.9-1.5-0.4-0.8-0.3-1.1 0.9-0.6 2.4-0.5 1.4-1 0.3 0.1 0.1 0.3 0.1 0.1 0.1 0 0.5 0.1 0.5 0 1.1 0.5 0.6 0.2 0.8 0-0.3-0.8 0.4-0.4 0.4-0.3 0.4-0.2 0.4 0.5 0.1-0.5 0-0.5 0-0.5-0.1-0.6-0.3 0.4-1-1.7-0.3-0.4 1.9-0.8 0.3 1.3 0.8 0.1 0.5-0.7-0.6-1.6 0.8-0.2 0.7-0.4 0.6-0.5 0.5-0.5 0.9 0.6 1-0.6 0.4-1-1-0.3 0.8-1.6 0-0.7-0.8-0.6-0.8 0.7-0.6 0.4-0.5 0.1-0.9 0-0.2-0.2-0.5-0.8-0.3-0.2-0.5 0.2-0.4 0.3-0.4 0-0.4-0.5-0.6 0.5-1.6 0.9-0.6 0.2-0.5-0.2-0.8-1.2-0.7-0.2-0.9-0.6-0.4-1.4 0.1-1.6 0.7-1 0-0.4-0.2 0-0.8 0 0.6-0.8 1.1-0.8 1.2-0.7 0.9-0.2 0.5-0.6-0.4-1.1-1.1-1.9-1.3-1.7-0.7-0.5-1.5-0.8z" id="TR35" name="Izmir">
  </path>
  <text x="120" y="260" font-size="9" font-family="sans-serif" fill="white">IZM</text>

  <path d="M121.4 280.3l0.1 0 3.1-0.1 3.8-1.4 5.8-3.9 2.4-0.4 11.7 1 11-3 9.2-0.1 1.7-0.7 1.6-0.9 1.9-0.6 1.9-0.3 7.5-2.7 6.5 0.1 0.5 1.4 0.6 1.3 2.7 1.9 0.6 1.7-0.1 2.1 0.7 3.6-0.4 1.3-1.1 0.8-0.1 1.5 1 1.4 0.8 1.6 1 1.5 3 0.6 0.5 1.4-0.2 1.7-1.4 1-1.9 0.1-2.2 3.1-2.5 2.4-3.7-0.4-3.3 1-1 2.2 0.6 2.2 0.5 0.2 0.5 0.4 0.4 0.8 0.2 0.9-6.2-0.9-3.5-1.9-2.9-2.5-3.5-0.7-2.5 1.8-1.7 3.3-1.9 1.5-5.7 0.4-3.4-0.1-2-1.1-2.2 0-2.1 0.6-2.2-0.4-3.3-2.3-3.8-0.5-1.9-0.7-1.6-1.1-1.6 0-1.5 0.9-0.6 1-2.5 5.6-0.6 1-0.8 0-0.8 0.4-0.4 0.8-0.2 0.8-0.5 0.5-1.2-0.1 0 0.5 0.7 0.5-0.3 0.2-2.8 0.2-0.6 0.2-0.6 0.5-0.3-0.4-0.4-0.3-0.3 0-0.3 0.3-0.1-0.5 0-0.2-0.2-0.1-0.4 0.2-0.1 0.1-0.1-0.2-0.4-0.1 0.5-0.6 0.3-0.6 0.1-0.6-0.2-0.7 0.7-0.3 0.3-0.1 0-0.4-0.4-1.2 0.2-2.7-0.8 0.3-0.3-0.4-0.3 0-0.4 0.3-0.3 0.4 0.2-1 0.3-0.9 0.1-0.8-0.3-1 0.2-0.3-0.2-0.3-0.2-0.3 0.2-0.7 0.7 0.5 0.5-1 0.1-1.3-0.2-0.7-0.7-0.2-2.7-1.8-4.1-1.2-1.8-0.9 0.4-1.2 0.9-0.3 3.1 0.3 1.1-0.2 4.1-1.5 0.6-0.4 1.1-1.4 0.3-0.9 0.2-1.4 0.1-1.3-0.1-0.7-0.4-0.6-0.4-0.5-0.3-0.7 0.1-1.1 0.2-0.3 0.6-0.5 0.2-0.4 0.1-0.3z" id="TR09" name="Aydin">
  </path>
  <text x="135" y="295" font-size="9" font-family="sans-serif" fill="white">AYD</text>

  <path d="M128.1 308.9l0.6-1 2.5-5.6 0.6-1 1.5-0.9 1.6 0 1.6 1.1 1.9 0.7 3.8 0.5 3.3 2.3 2.2 0.4 2.1-0.6 2.2 0 2 1.1 3.4 0.1 5.7-0.4 1.9-1.5 1.7-3.3 2.5-1.8 3.5 0.7 2.9 2.5 3.5 1.9 6.2 0.9 0.6 1-0.2 1.2 0 1.7 0.5 1.8 1.2 0.4 1.7 0 2.2 0.9 1.4 2.5 0.7 2.7 1.6 2.3 3.5 0.6 0.6 0.6 0.8 1.6 0.6 0.6 3.5 1.6 2.8 2.8 0.7 2.3 0.4 2.3 0.1 1.9 0.2 1 1.2 1.1 2.6 0.2 4.7 2.6 1.7-0.8 0.9-1.3 0.6-1.5 0.3-3.9 2.2-1.8 1.1 3-0.8 3.5 1.9 0.7 2.3-2.9 5.7-0.8 4 5.6-5.1 11.8 0.6 3.7-0.9 3.2-2.3 1.7-2.1 2-0.5 1.6 0.3 1.6-1.1 0.6-1.4-0.6-3 1.2-1.6 3.2-0.3 1-0.4 0.9 0 0.7 0 0.8-0.3 1.5-0.9 1.2-1.3 0.7-0.2-0.2-0.4-0.9-0.6-0.7-2.9-1-0.8-1-0.6 0.5-0.2-0.8 0-0.2 0.2-0.2 0-0.5-1.3 0 0.3-0.3-0.5-0.4-0.3-0.1-0.5 0 0.2-0.5 0.4-0.4 0.5-0.2 0.5-0.1 0-0.2-0.1-0.1-0.2-0.1 0.3-1.1-0.3-1-0.6-0.7-0.7-0.4 0-0.4 0.6-0.5 0.3-0.2 0.4-0.1 0-0.5-0.2-2-0.2-1-0.6 0.3-0.3 0-0.6-0.8-2.3 0.9-1-0.1 0.9-0.3 0.2-0.5-0.3-0.8-0.5-0.9 0.2-0.4 0.5-1.1 0.3-0.6 0.7 0.6 0.5-0.5 0.7-0.9 0.7-0.3 0 0.3-0.3 0.7 0.4 0.2 0.6-0.2 0.3-0.4-0.2-0.6-0.2-0.5-0.3-0.5-0.3-0.3-3-2.1-3.7-1.6-0.4-0.5-0.4-0.9-0.8 0.6-0.8 1.1-0.7 0.6 0 0.4 0.4 0 0 0.4-0.9 0.1-0.4 0.1-0.4 0.2-0.1 0.5 0.1 0.5 0 0.5-0.6 0.1 0.2 0.5 0.2 0.2 0.2 0.2-0.3 0.4 0.5 0.5 0.2 0.3 0.3 0 0.2-0.6 0.3-0.5 0.1-0.5-0.3-0.9 0.8 0.8-0.3 1-0.8 0.9-0.7 0.6 0.3 0.6-0.5 0.3-0.8 0.1-0.6-0.2-0.5-0.5 0-0.6 0.4-0.4 0.7-0.1 0-0.5-0.8-0.4-0.5-0.4-0.5-0.2-0.8 0.3-0.2-1.6-1.7-1.2-2.2-0.4-1.4 0.7-0.3 0-0.2-1.1-0.6-0.4-0.6 0.2-0.6 0.9-0.3-0.4-0.6-1.6 0.4-0.8 0.2-1.2-0.1-1.1-0.5-0.6 0-0.2 0-0.1 0.2 0 0.1-0.1-0.1-0.2-0.1-0.1 0-0.2 0.2-0.3-0.3 0-0.2 0.5-0.1 0.3 0 0.4-0.3-0.2 0-0.1-0.1-0.4-0.6-0.7-1.4-0.3-1.1 0.6 0.2 1.5-0.5-0.4-0.5-0.1-0.4-0.1-0.6-0.2 0.7-0.4 0-0.4-1.1 0-0.7-0.2-0.3-0.6-0.2-1.2 0.3 0 0.3 0 0.1-0.2-0.1-0.4-0.1-0.1-0.1-0.2-0.1-0.1-0.1-0.7-0.2-0.3-0.2 0-0.1 0.6-0.5 0.5-0.9 0.3-1.4 0.1-0.5 0.2 0 0.4 0.3 0.4 0.4 0.3 0.3 0 0.4-0.1 0.4 0 0.5 0.5-0.5 0.9-0.4 0.8-0.5 0.7-0.9 0-2.4-1.3-0.5-0.3-0.3 0 0.2 0.9 0.1 0.3-1.3 0.1-0.5-0.2-0.2-0.5 0.2-0.5 0.5-0.3 1.3-0.2 0-0.4-0.6-0.4-0.7-0.6-0.7-0.4-0.8 0.4-0.6 1-0.3 0.9 0.1 0.9 0.7 0.6-0.3 1.3 1.9 1.4 0.3 1.4-0.5-0.4-0.8-0.3-0.7 0.2-0.3 0.9-0.3-0.2-0.3-0.2 0 0.3-0.1 0.2-0.1 0.1-0.2 0.2 0.3 0.1 0.1 0.3-2.4 0.9-1 0.7-0.8 1.3-0.7 1.3-0.9 1.4-1.1 0.9-1.2-0.4-0.2 0.4-0.2 0.2-0.2 0.1-0.4 0.1 0.1 0.2 0.1 0.4 0.1 0.2-0.6 0.3-0.4 0-0.4-0.2-0.2-0.5-0.5 0.8-0.6 0.2-0.6-0.4-0.6-0.6 0.1-0.2 0.1-0.4 0.1-0.2-0.2-0.2-0.2-0.2-0.2-0.4 3.6 0 0.9-0.4 0.5-0.6 0.5-0.7 0.7-0.7-0.7-0.8-0.9 0.8-0.4 0.3 0-0.3 0.5-0.5 0.1-0.8-0.1-0.7-0.5-0.5-0.5-0.3-0.1 0.2 0 0.7-0.3 0.3-0.5 0-0.5-0.3-0.4-0.2-0.4 0.2-0.5 0-0.5-0.2-0.2-0.6 0.3-0.2 1.7-0.4-0.4-0.4 1 0.1 0.3-0.1 0.3-0.2 0.2-0.3 0.2-0.2 0-0.1 1.8-0.1 0.5-0.3-0.2 0.9 0.7 0.1 0.7-0.6 0.1-0.8-0.5-0.4-0.9-0.1-0.3-0.3 0.1-0.4 0.4-0.4 0.5-0.4 0.3-0.5 0.2 0.4 0.2 0.3 0.6 0.6-0.2-1.1-0.1-1.2-0.3-0.5-0.5-0.1-0.6 0-0.4 0.3-0.8 1.3-1 0.7-0.4-0.1-0.2-0.6-0.7 0.7-1.9 0.6-0.7 0.4-0.3 0-0.3-0.8-0.4 0.2-0.6 0.6-0.7 0.4-0.2-0.8-0.4 0-0.3 0.5-0.4 0.3-0.3-0.2-0.3-0.5-0.3-0.1-0.4 0.8-0.3 0-0.6-0.5-0.8-0.5-1-0.2-0.9 0.4 0-0.4-0.5 0.2-0.6 0-0.6-0.2-0.7 0-0.8 0.2-1 1.3-0.7 0.5 0 0.4 0.2 0.5-0.7 1.9-0.1 1.3-1.6-0.8-0.8-0.3-0.8-0.2-0.9 0.1-0.7 0.2-0.5 0-0.2-0.7-3.3 1.2-0.2 0.4-0.2 0.3-0.2 0.2-0.2-0.2-0.6-0.5-0.4-0.2-1.1-0.2-0.4 0-0.6 0.2-0.1-0.7-0.4-0.4-0.5 0-0.6 0.3 0-0.2 0-0.1-0.2 0-0.1-0.1 0.2-0.3 0-0.4-0.2-0.3-0.4-0.2 0-0.4 0.6 0.3 0.8 0.2 0.8 0 0.6-0.3 0.4-0.6 0.2-1 0.6-0.6 0.5-0.4 0.4-0.1 1.2 0.1 3.5-0.6 1.7 0.2 0.9-0.3 0.2-0.7 0.1-0.8 0.2-0.7 1.1-0.3 2.2 1.4 0.6-0.3 0.8 0.4 0.6 0 0.7-0.1 0.5 0.1 1.2-1.1 0.7-0.4 4.1-0.1 0.5-0.2 0.3 0.4 0.8 0.3 1 0.3 0.9 0 1.6-0.2 0.8 0.3 0.8 0.7 0.2-0.6 0.3-0.3 0.9-0.7-0.3-0.7-0.5-0.3-0.7-0.2-0.8 0 0.3-0.4 0.4 0.2 0.1-0.4-0.3-0.6-0.5-0.5 0.2 0 0.1-0.1 0.1-0.1 0.2-0.1 0.4 0.2 0.3-0.2 0.5-0.3 0.5-0.2 0-0.3-1-1-0.4-0.6-0.3-0.5 0.7 0.4 0.3-0.4-0.3-0.2-0.1-0.2-0.1-0.2-0.2-0.2 0.4 0 0.8-0.1 0.5 0.1 0-0.4-1 0 0-0.4 1.1 0 0.5 0.1 0.3 0.3 0.3-0.3 0.3-0.1 0.2 0.1 0.2 0.3 0.3 0 0.5-0.3 1.1 0.5 0.4-0.2 0.3 0 0.1 0.4 0.3 0.8 0.1-0.3 0-0.1 0-0.1-0.1-0.3 0.1-0.3 0-0.2-0.2-0.2-0.3-0.1 0-0.4 0.4-0.1 0.4 0.1 0.3 0.1 0.2 0.3 1-1.6 0.3-0.4 0-0.5-0.6 0 0.3-0.6 0.3-0.6 0.8 0.6 0.7 0.2 0.4-0.4-0.3-0.8 2.6-1 1.4-0.4 0-0.3-0.4-0.5-0.3-0.2-0.5-0.2-6.2 1-2.3-0.1-0.9 0.2 0.1 0.7 0 0.4-0.8-0.4-5-0.8-0.5 0.1-0.6 0.6-0.6 0.1-0.5-0.1-1.4-0.3-1.2 0.1-3.9 1.3-0.5-0.2-0.3 0 0 0.2-0.3 0.6-0.4-0.1-0.4-0.1-0.6 0-0.5 0.2-1-0.7-1.5 0-1.5 0.6-0.9 0.9-0.9-0.5-1.3-0.5-1.1 0.1-0.3 1.4-1.1-0.9-0.5-0.2-0.7-0.2-1.4 0.2-0.5-0.2-0.5-0.4-0.8-1.3-0.3-0.3-0.8 0-0.7 0.7-0.3-0.5 0.1-0.2-0.3 0-0.1 0.6-0.6 1.4-0.1-0.3-0.1-0.1 0.1-0.1 0.1-0.3 0-0.1-0.1 0-0.1-0.1-0.1-0.2 0.2-0.2 0.1-0.1-0.1-0.1-0.2-0.4-0.4 0.3-1.3 0.3-0.6 0.2 0 0.4 0.2 0.6-0.3 0.7-0.5 0.5-0.7 0.3 0.2 0.5 0.2 0.3-0.5-0.2-0.2 0-0.3 0.2-0.3-0.5-0.9 0.2-0.5-0.9-0.2-1.3-0.1-1-0.2-1-0.4-0.8-0.2-0.8 0.5-1.3 0.4 0 0.8-0.3 0.8-0.6 0.6-0.7-0.3-0.3-0.4-0.1-0.4 0.1-0.5 0.3-0.2-0.2-0.1-0.2-0.1-0.4 0.4 0.3 0.5-0.6 1.5 0.5 0.9-0.2 0-0.4 0.1-0.5 0.1-0.5-0.2-0.7 0.5 0.2 0.4 0.3 0.1 0.5 0 0.7 0.3 0 0.3-0.6 0.3-0.5 0.4-0.1 0.3 0.4 0.2-0.2 0-0.1 0.1-0.2 0 1 0.2 0.3 0.3 0 0.5 0 0.4 0.3 0.3 0.2 0.3 0.1 0.7-0.2-0.2 0.1 0 0.1-0.1 0-0.1 0.1 0.7 1.3 0.7 0.4 0.7-0.1 1.2-0.9 1-0.5 0.4-0.3 0.5-0.3 1.2 0 0.5-0.3 0-0.4-0.7 0.1-0.1 0.1-0.2 0.2-0.4-1.9-0.3-1-0.6-0.4 0-0.4 2.2-0.5 0.6 0.1-0.5 1.2 0.5-0.1 0.4-0.3 0.7-0.8-0.7-0.3-0.3-0.4 0-1.2 0.1-0.2 0.6-0.5 0.3-0.3 0.1-0.4 0.1-0.8 0.1-0.4-0.6-0.4 0-0.1-0.4-0.1-0.2 0.2 0 0.3-0.1 0.1-1.1-0.1-0.6 0.2-0.2 0.5-0.3 0.9-0.6 0.8-0.7 0.4-0.7-0.3 0.8-0.7 0.1-0.8-0.5-0.5-1.1 0-0.1 0.2-0.5 0.5-0.4 0.2-0.3-0.3 0.1-0.6 0.4-0.5 0.8-1.1 0-0.5 0.2-0.6 0.1-0.9-0.6-0.9-0.3 0-0.2 1.6-1.1 0.6-1.3-0.2-1-0.8-0.4-1.3 0.4-1.2 0.9-1 1.1-0.5-0.6-0.9-0.9-0.5-0.2 0.1z" id="TR48" name="Mugla">
  </path>
  <text x="155" y="320" font-size="9" font-family="sans-serif" fill="white">MUG</text>

  <path d="M216.3 375.3l1.3-0.7 0.9-1.2 0.3-1.5 0-0.8 0-0.7 0.4-0.9 0.3-1 1.6-3.2 3-1.2 1.4 0.6 1.1-0.6-0.3-1.6 0.5-1.6 2.1-2 2.3-1.7 0.9-3.2-0.6-3.7 5.1-11.8 1.4-0.2 1.3-0.7 1.1-1.6 1.3-1.3 1.9-3.5 0.7-4.4 2.6-3.6 8.6-4.4 2.9-0.5 7-3 2.9 0.4 2.9 3.6 1.1 0.4 6.6-0.3 4.3 0.5 3.7 0 1.8-0.5 2.9-3.1 0.9-2.6 3.3-2.9 4.2 1.7 4.9-1.7 2.6-0.4 2.2-1.6 2.4-0.9 2.5 0.4 1 1.3 1.2 1.2 1.8 1.5 2.1 0.8 4.7 0 12.2 2.6 4 2.6 3 2.8 3.3 2.3 2.4 2.5 2.1 3 1.4 1.3 1.4 1 3.2 3 1.8 0.8 1.5 0.9 0.2 1.9-1.2 0.9-0.5 1.8 0.7 1.6 2 0.8 2.2 0.2 1.5 0.3 1 1.4 0.8 4-0.4 4 1.7 4.3 1.9 4 1.3 1.6 1.6 1.1 1.9 1 0.9 1.9-0.4 3.5 0.2 6.5-0.7 2.8-0.8 1.5-0.6 1.6-0.2 1.5-0.4 1.4-0.7 1.1-0.2 0.4-0.2-0.1-1.7-0.2-0.8-0.2-3.7-2.1-0.5-0.5-0.3-0.7-0.8-0.4-1-0.3-0.8-0.4-2.2-3-0.4-0.1-0.2-0.3-0.9-0.6-0.2-0.3-0.2-1.7-0.1-0.5-1.1-1.6-2.9-2.6-0.6-1.6-0.1-0.5-0.2-0.4-0.5-0.8-0.5-0.9-0.2-0.2-0.6-0.3-0.2 0-0.8-1.8-0.6-1-0.7-0.4-2.9-3-0.3-0.2-0.5 0-0.5 0-0.5-0.2-0.4-0.2-0.3-0.3-0.2-0.2-1.9 0.1-1-0.1-0.4-0.6-0.5-0.5-1.3-0.5-1.3-0.2-0.8 0.2-0.5-0.4-1.8-0.8-0.9-1.3-0.6-0.6-0.6 0.1-1-0.2-3.6-1.6-0.8-0.7-0.7-0.8-9-4-1.3-0.2-0.1-1.5-1.7-1-19.1-2.9-7.8 0.5-1.3-0.4-1-0.6-1.9-1.5-2.8 1.9-1.2 1.3-0.7 1.8-0.6 1.1-0.2 0.4 0 1.9-0.3 1.9 0.1 1 0.5 0.9 0 0.4-0.4 0.5-0.3 0.5-0.2 0.6-0.1 0.8 0.1 1.1 0.3 0.6 0.3 0.5 0.3 0.7 0.3-0.4-0.1 1.2-0.7 2.1 0.2 0.7-1.7 1.4-0.7 0.9-0.5 2.1-1.1 1.6 0.1 0.5-0.7 1 0.1 1 0.5 0.8 0.7 0.4-0.3 0.9 1.2 0.4-0.7 0.9-1.3 1.1-0.5 1.2 0.3 0 0.2-0.3 0 0.1 0.1 0.1 0.4 0.1-0.5 0.5-0.7 0.5-0.6 0.5-0.5 1.4-0.6 0.7-1.4 1.2 0.1-2.5-0.2-1-0.6-0.5-1.1 0.3-5-2.3-1 0-3.6 0.6-0.4 0.5-0.2 0.9 0 1.2-0.3 0-0.1-0.4-0.3-0.8-0.3 1.1 0 0.5-0.7-0.4 0.1 0.4-0.1 0.4-1.7-0.4-0.4-0.2-0.4-0.3-0.4-0.2-0.6 0.3 1 0 0 0.4-3.3 1.7-0.7-0.1-0.5 0.4-0.6-0.1-0.5-0.2-0.6-0.1-0.5 0.1-0.2 0.1-0.6 0.6-0.8 0.5-1.8 0.4-0.7 0.3 0.2 0.1 0.1 0 0.1 0.1 0 0.3-0.5 0-1.2 0.3 0 0.4 1 0-0.6 0.7-0.7 0.5-0.8 0.3-0.8 0.2 0-0.5 0.2-0.2 0.2-0.1 0.1-0.2 0.1-0.3-0.6 0.1-0.1 0.1-0.2 0.3-0.6-0.6-0.6-0.2-0.5 0.1-0.6 0.2-0.2 0.3 0 0.2-0.2 0.2-0.5 0.1 0 0.2-0.8 1.1-0.2-1.2-1.6-0.8-0.5-1.2 0.7 0.3 0.3-0.3-0.1-0.6-0.4-0.2-2.4 0.3 0-0.3 0.4-0.3 0.5-0.1 0.5-0.1 0.5 0-1-0.4-3.8 0-1.3-0.3-3-1.7-0.5 0.6-0.3-0.6-0.1-1.6-0.3 0.4-0.2-0.1-0.2-0.2-0.3-0.1-0.5 0.2-0.2 0.1-0.1 0.2-0.2 0.3-0.3 0.3-0.1 0.4-0.2 0.4-0.4 0.2-0.4-0.3-0.3-0.6-0.3-0.4-0.3 0.4-2.9-2.7z" id="TR07" name="Antalya">
  </path>
  <text x="275" y="335" font-size="9" font-family="sans-serif" fill="white">ANT</text>

  <path d="M373.5 387l0.2-0.4 0.7-1.1 0.4-1.4 0.2-1.5 0.6-1.6 0.8-1.5 0.7-2.8-0.2-6.5 0.4-3.5 3.1-0.4 3.1 0.8 2.9 0 2.7-1.3 2.8-0.6 2.9 0.1 1.5-0.2 1.2-1.2 0.5-2.1 0.7-1.9 0.7-0.3 0.7-0.1 1.7 0.9 1.8 0.7 1.2-1.6-1.1-1.8-2.2-1.6-2.5-0.7-1-0.8-0.9-1.2-1.2-0.5-0.7-1.6-0.4-1.7-0.8-1.4-1-1.2-0.1-1.9 1.8-0.3 0.8-0.3 2.1-1.4 1.4-0.5 0.6 0.3 0.1 0.5 0.4 0.7 1.7 0.4 1-1.7 0.6-2.6 1.5-1.9 1.8-0.6 1.6-1.1 1.5-1.4 1.7-1 2-0.6 6-0.5 3.8-1.5 3.9-0.4 1.6 0.5 1.2-0.1 1.7-0.9 3.5-0.7 4.6-3.5 1.7-0.7 3.6-0.3 3.3-1.3 1.6-1.9 1.3-0.8 4.2-1.5 2.7-1.3 2.1-2.1 1.4-0.7 2.5-0.9 0.9-0.6 0.6-1.9 3.5-0.1 1.6-0.6 1.5-0.9 3.3-1.4 3.3 0.8 1.6 3.6 1.8 3.3 2.3 1.8 0.1 6.1 1 3.4 2.3 1.7 2.9-0.2 1.8 1.9-1.4 3.7 0 3.4 0.7 3.3 0.2 1.7-0.2 1.6-1.8 1.6-2 0.6-2.5 1.7 0 0.1-0.2 0-0.8 0.2-0.6 0.3 0.1-0.3 0.3-0.9-0.7-0.4-2-2.1-3.9-2-0.2 0.4-1.4-0.8-2 0.5-3.2 1.5-1.4 0.2-0.6 0.2-1.4 0.9-0.3 0.2-0.5 1.1-0.2 0.3-1.5 0.8-4.1 3.8-5.2 3.2-1.4 1.2-4.1 5.3-0.4 0.9-0.2 0.6-0.5 0.3-1 0.5-1.6 1.7-1.7 1-0.1 1.5 0.2 1.9-0.1 1.6-0.9 0.8-1.5 0.3-1.3 0.4-0.5 1.3 0.3-0.1 0.2-0.2-0.1 0.4-0.9 1.2-0.4 0.7-0.2 0.9 0 0.7-0.3 0.4-0.8 0 0-0.4 0.4-1-0.2-1.7-0.7-1.5-1-0.6-0.7-0.2-0.6-0.4-0.6-0.2-0.7 0.6-0.9 1.4-0.4 0.6-0.8 0.2 0.3 0.1 0.2 0.1 0.1 0.2-0.5 0.5-0.7 1.3-0.6 0.2-0.4 0.1-1.7 0.7-0.3 0.3-1.5 1.6-0.2 0.6-0.3 1.6-0.3 0.4-0.1-0.4-1.2-1.8-0.2-0.9-0.4-0.2-0.6 0.1-0.7 0.3-1.1 1-1.1 1.4-1 1-1-0.2 0.6-0.3 0-0.5-1.1-0.1-2-0.5-1-0.2-1 0.2-1.7 0.9-0.7 0.2-1.8-0.7-1-0.1-0.9 1.1-1 0.1-2.2-0.1-1.4 0.4-0.5 0.1-0.6-0.2-1-0.5-0.5-0.1-1.1 0.3-0.6 0.7-0.4 1-0.7 0.8-0.5 0.4-0.2 0-0.1-0.2-0.5-0.2-0.6-0.1-1.5 0.1-3.1-0.8-0.9 0-3.1 1.6-0.5 0.2-0.4 0.7-2.6 1.9-2-0.1-4.3-1-1.8-0.9-2.9-1.9z" id="TR33" name="Mersin">
  </path>
  <text x="450" y="340" font-size="9" font-family="sans-serif" fill="white">MER</text>

  <path d="M539.2 332.9l-1-0.4-1-0.2-0.9 0.5-3.9 4.5 0 2.5 0.7 1.2-1.8 2.3-0.7 0.5-0.8 0.2-0.4 0.4-1.6 1.8-0.7 0.6-1.8 0.4-4 0.2-1.7 0.7-0.6 0.5-0.5 1.1-0.5 0.4 0.2-0.4 0-0.3-0.2-0.3-0.4-0.2-0.4 0.9-0.7 0.7-0.5 0.7 0.4 0.9 0.7-0.9 1 0.3 0.2-1 0.2 0.1 0.2 0.2 0.1 0.2 0.1 0.3 0.3-0.4 0-0.4 0-0.4-0.3-0.4 0.7-0.4 0.3 0.3 0.2 0.6 0.3 0.3 0.5-0.1 0.5-0.4 0.5-0.2 0.6 0.3-2.8 1.3-1.3 1-0.8 1.4 0.1 0.6 0.7-0.4 2.1-2.5 0.6-0.4 0.8-0.2-1.8 1.8-0.3 0.5-0.4 1.1-0.3 0.5-0.2 0.5 0 0.8-0.1 0.7-0.4 0.2-0.4 0.1-0.7 0.6-0.5 0.1-1.5 0.1-0.6-0.1-1.5-1.4-0.4-0.2-0.7 0.2-0.4 0.3-0.1 0.6 0.4 0.1 0.4 0.1 1.7 0.7-2.1-0.6-2-0.2-0.4 0.1-1.1 0.6-0.3 0.3-0.2 0.4-0.4 0.3-1 0.3-1.2 1.1-0.1 0.2-0.5-0.3-0.8-1.1-0.5-0.3-0.7-0.2-12-7.3-1.3-0.4-1.5-1.1-1-0.3-0.7-0.1-0.6 0 0-0.1 2.5-1.7 2-0.6 1.8-1.6 0.2-1.6-0.2-1.7-0.7-3.3 0-3.4 1.4-3.7-1.8-1.9-2.9 0.2-2.3-1.7-1-3.4-0.1-6.1-2.3-1.8-1.8-3.3-1.6-3.6 0-2.8 0.2-1.3 1.2-1.9 0.7-0.6 0.7-0.7 0.7-2.5-0.3-1.7-1.2-3-0.2-3 1.5-2.2 2.4 0.2 2.4 0.8 4.7-0.8 6.2-6.3 8.2 0.7 4.3 1.1 5.8 2.3 2.5-1.2-1-11 17.6-12.2 2.6-3.5 2-4.1 1.3-1.9 2.1-5 2-1.7 3.7-2.1 3.8-1 2.5 1.1 1.8 2.8 1.2 3.2 2 2.1-2.6 2.5-1.5 3.8-2.4 10.7-1.4 3.8-0.6 4-0.1 1.8 0.3 2.9 1.5 3.7-0.1 2.4-1.6 1.6-0.9 0.5-1.3 1.7-3.6 0-4.5 0.3-2.2 3.7-2.7 6.2-3.1 7.7 0 4.6 1.4 4.4 1-0.1 3.1 0.6 1.3 1.1 0.4 0.8 0.6 3.4-0.7 3.1-1.4 3.6z" id="TR01" name="Adana">
  </path>
  <text x="500" y="340" font-size="9" font-family="sans-serif" fill="white">ADA</text>

  <path d="M336.8 86.3l3.5 0.3 3 0.8 10.2 0.3 2.3 0.1 4.1 0.9-0.3 1.7 0 1.8 1.1 0.7 1.4 0.2 2.2 1.4 5.4 2.7 1.8 3.3-0.1 1.7-0.1 0.8-0.1 1-0.7 3.4-1.7 0.7-1.4 1.3-0.2 3.4 1.8 5-0.8 1.5-1.7 1.9-1.3 2.3-3.9 2.1-6.5-1-2 0.6-2 1.4-5.6 1.3-3.3 1.5-4 0.9-5.9-0.1-1.9 0.3-4.2 1.7-1.6-0.2-1.5-0.6-1.4-0.2-1-0.5-1.6-1.7-8 0.9-4.2-2.6-4.4-1.5-1.2 1.3-0.5 2.4 0.2 3.7-1.5 3.2-3.9 2.2-2.9 3.9-3.1-0.5-2.8-1-1.8-2.3-2.9-5.2-0.7-2.7 0.9-2.3-1.1-2.2-1-1.2-0.3-1.6 0.6-0.7 0.8-0.4 1.3-3.9 1.9-2.9 3.3 0.2 3.1-1.5 0.6-1.9-0.4-1.9-0.1-2.1 3-2.3 3.9 1.4 7.7-0.3 5.4 2.3 4.6-0.5 3.6-2.8 1.8-4.5 0.2-3.3 2.3-1.8 6.1-1 4.4-1.1 2.3-2.7 0.8-5.5z" id="TR14" name="Bolu">
  </path>
  <text x="330" y="114" font-size="9" font-family="sans-serif" fill="white">BOL</text>

  <path d="M292.4 142.5l2.9-3.9 3.9-2.2 1.5-3.2-0.2-3.7 0.5-2.4 1.2-1.3 4.4 1.5 4.2 2.6 8-0.9 1.6 1.7 1 0.5 1.4 0.2 1.5 0.6 1.6 0.2 4.2-1.7 1.9-0.3 5.9 0.1 4-0.9 3.3-1.5 5.6-1.3 2-1.4 2-0.6 6.5 1 3.9-2.1 1.3-2.3 1.7-1.9 0.8-1.5-1.8-5 0.2-3.4 1.4-1.3 1.7-0.7 3.7-0.1 3.8 0.6 13.9 6.5 1.4 1.8 1.1 2.2 1.5 1.8 1.8 1.3 0.8 0.4 2.1 1.8 1.5 0.9 1 1.6 0.5 2.1 3.1 2.5 3.5-0.4 0.2-1.6 0.6-1.8 0.8-0.3 1 0 1.5 0.6 1.4 0.9 6.4 2.1-0.6 5.1-0.6 3.5 0 4.2 0.3 3.7-0.6 3.6-5.5 0.6-3.5 1.5-2.2 5.3-1.2 5.2-1.4 5.2 1.2 5.3 3.8 4.6 1.3 2.3 1.9 8.8 3.8 7.4 0.9 3.4 5.4 3.4 2.4 2 0.8 0.3 0.7 0.6 0.7 1.2 1 0.7 2.5 0.2 1.6 0.6 0.6 0.7 3 1.1-0.4 2-1.6 4.1 1.9 5.1-0.1 3.6-4 3.8-1.8 0.9-4.2-0.2-4.2 1.2-3.9 2.2-4.1 1.1-1-2.4-1.5-2.2-1.3-2.3-1-2.5-0.1-3.5 0.6-3.6 0.2-3.3-0.3-3.3-2.5-5.9-4.7-3.4-2.7-0.8-0.8-0.5-2.1-1.6-2 0-0.9 1.3-0.5 1.6-0.4 3.2-0.7 1.1-2.1-0.3-2.7-2.2-2.3-0.7-4.8 4-1.8 2.3-2.1 1.2-3.6-1.5-3 1.4-2.8 2.4-2-0.2-1.7-1.6-1.6-0.9-4-1.4-2.4 0.3-5 1.5-1.7-0.5-6.8-5.7-2.1-1.3-2-0.9 1.1-0.8 2.5-1.2 0.5-0.6 0.4-0.7 1-0.3 1.1-0.1 1.1-1.2 0.9-1.4-0.3-1.9-1.5-1-1-1.6-0.1-2.4-0.1-0.3-0.2-0.8 0.5-1.9 0.2-1.8 0.1-1.9-0.6-1.3-0.7-1.1-0.2-1.9-0.6-1.3-2.4-2.1-2.4-6.5-0.3-3.1 2-2.2-0.1-1.6-0.6-0.4-0.7-1.1-0.4-0.9-1.6-0.1-1.4-0.7-1.2-1.9-0.6-1.9-0.2-1.6-0.6-1.1 0-1.8-2.2 0.3-1.9-1.3-1.7 0.6-3.5 0.1-1.8 0.4-1.6-0.5-1.4 0.4-1.9-2.1-1.2 0.2-1.2 0.4-4.4-0.6-1.3 1.1-1.3 1-1.3-0.5-1.2-0.7-2.7-0.3-4.6 1.9-1.9 0.2-1.1-0.4-0.3-1.3-0.4-3.7-2.1-2.6z" id="TR06" name="Ankara">
  </path>
  <text x="365" y="170" font-size="9" font-family="sans-serif" fill="white">ANK</text>
  <path d="M248.6 118.2l1.3 2.8 1.7 2.5 1.9 1.6 1.7 1.9 4.2 1.3 6.6-1.7 2.1-0.2 1.7 0.5 1.8 0 1.5 0.9 1.2 1.8 0.8 0.7 3.5-0.1 2.5 0.6 0.7 2.7 2.9 5.2 1.8 2.3-4.9 0.2-3.8 3.1-0.9 3.1-0.6 3.3-1.6 2.8-2.4 1.8-2.6 0-2.4 1-0.8 1.4-0.8 1.2-1.4 0.7-1.3 1.1-0.4 6.3-2.1 3.6-2.6 3.1-1.8 0.5-3.6 0.4-3.7 1-2.1-0.5-5.2-3.8-1.7-0.7-1.9-1.2-0.7-1-1.7-3.3-0.2-2.7 0.8-5.2 2.7 0.5 2.3-0.8-0.6-3.1-1.3-1-2.5-3.6 0-3.1 1.3-6.2 4.6-4.9 0.8-1.7-0.2-1.7-1.1-1.4-0.2-1.9 0.6-1.5 0.5-1.7 0.2-2 0.9-1.7 0.9-1 1.1-0.8 2.5-1.4z" id="TR11" name="Bilecik">
  </path>
  <text x="248.6" y="146" font-size="9" font-family="sans-serif" fill="white">BLC</text>
  <path d="M286.5 141l2.8 1 3.1 0.5 2.1 2.6 0.4 3.7 0.3 1.3 1.1 0.4 1.9-0.2 4.6-1.9 2.7 0.3 1.2 0.7 1.3 0.5 1.3-1 1.3-1.1 4.4 0.6 1.2-0.4 1.2-0.2 1.9 2.1 1.4-0.4 1.6 0.5 1.8-0.4 3.5-0.1 1.7-0.6 1.9 1.3 2.2-0.3 0 1.8 0.6 1.1 0.2 1.6 0.6 1.9 1.2 1.9 1.4 0.7 1.6 0.1 0.4 0.9 0.7 1.1 0.6 0.4 0.1 1.6-2 2.2 0.3 3.1 2.4 6.5 2.4 2.1 0.6 1.3 0.2 1.9 0.7 1.1 0.6 1.3-0.1 1.9-0.2 1.8-0.5 1.9 0.2 0.8 0.1 0.3 0.1 2.4 1 1.6 1.5 1 0.3 1.9-0.9 1.4-1.1 1.2-1.1 0.1-1 0.3-0.4 0.7-0.5 0.6-2.5 1.2-1.1 0.8-0.2 1.8-0.3 1.8-0.7 0.9-3.8 0.7-2.8-0.3-1.8-0.5-3.7-0.1-6.1 0.6-3.6-2.7-2.3-5.4-3.4-3.5-1.9 0.5-1.7 1.5-1.7 1.1-1.8 0.5-3.5 2.7-3.4 1.5-2.1-2.4-2.4-1.1-1.6 1.3-3 3-3.2 2.1-1.7 0.8-2.2 0.4-2.1-1.2-0.8-0.6-0.8-0.5-1.1-1.4-0.7-1.9-1.3-1.3-1.7-0.4-0.9-3.9-4.7-6.3-0.6-4.7-1.3-3.7-5.2-5-1.8-3 2.6-3.1 2.1-3.6 0.4-6.3 1.3-1.1 1.4-0.7 0.8-1.2 0.8-1.4 2.4-1 2.6 0 2.4-1.8 1.6-2.8 0.6-3.3 0.9-3.1 3.8-3.1 4.9-0.2z" id="TR26" name="Eskisehir">
  </path>
  <text x="286.5" y="175" font-size="9" font-family="sans-serif" fill="white">ESK</text>
  <path d="M397.1 83.1l1.1 1.4 0.7 0.6 6.1 0.6 4.3 2.9 1.8 2.1 2.2 0.7 1.8-0.6 5-3 3.7-0.7 7.7-4.1 1.6-0.6 0.7 0.4 0.5 2.5-1.5 2-1.2 1.4-0.5 1.9 1.7 3 2.8 1 1.5 1.4 1.6 1.2 2 0.4 1.9 0.1 2.4 3.9-0.6 2.5-1 2.5 0.3 2.6 1.2 2.4 0.3 2.2-0.1 2.2 0.6 2.3 1.2 2 0.7 1.5 0.5 1.7 0.4 1.6-0.1 1.6-0.7 0.4-1.1 2.6-1.4 2.4-0.8 0.4-1 0.2-3.8 2.2-4.4-0.4-13.1-4.2-6.4-2.1-1.4-0.9-1.5-0.6-1 0-0.8 0.3-0.6 1.8-0.2 1.6-3.5 0.4-3.1-2.5-0.5-2.1-1-1.6-1.5-0.9-2.1-1.8-0.8-0.4-1.8-1.3-1.5-1.8-1.1-2.2-1.4-1.8-13.9-6.5-3.8-0.6-3.7 0.1 0.7-3.4 0.1-1 0.1-0.8 4.9-2.3 5.6-4.5 2.3-4.2 1.7-1 4.6 0.5 4.6-2.5 2-5.1z" id="TR18" name="Çankiri">
  </path>
  <text x="399" y="110" font-size="9" font-family="sans-serif" fill="white">ÇKR</text>

  <path d="M385.2 52.5l1.6 1.8 2.9-0.4 3.5-1.2 3.5 2.6 1.3 5.6 1.3 3.1-4.6 0.9-2.5 2.5-2.2 3-0.4 2.1 0.9 6.8 2.7 0.4 2.5 1.1 1 1.5 0.4 0.8-2 5.1-4.6 2.5-4.6-0.5-1.7 1-2.3 4.2-5.6 4.5-4.9 2.3 0.1-1.7-1.8-3.3-5.4-2.7-2.2-1.4-1.4-0.2-1.1-0.7 0-1.8 0.3-1.7-4.1-0.9-2.3-0.1 0-5.6 1.5-5.1 0.8-3.3 1.7-2.1 2.5-3.5 5.2 0.2 5-1.3 5.7-4.8 2.1-4.6 2.7-0.8 4.5-4.3z" id="TR78" name="Karabük">
  </path>
  <text x="365" y="80" font-size="9" font-family="sans-serif" fill="white">KRB</text>

  <path d="M569.8 97.6l-0.8 1.6 0.5 1.9 0.6 0.4 2.1 0.5 2.7 1.6 3.9 1.4 2.5 1.5 3.1 1.3 3.4 0.3 3.3-0.5 3.1 0.3 10.9 7.6 6.4 0.4 1.6 3 0.9 3.8-2.5 4.9-2.8 4.1-1.7 0.7-1.8 0.4-0.7 0-0.6 0.2-1.7 1.3-1.7 1-4 0.6-4-0.2-4.4 0.6-6.3 1.6-1.7 0.8-5.4-0.8-1.8 0.6-1.7 1-1.3 3.6-1 3.7-0.9 2.4-1.5 1.6-7 2.7-7.9 0.4-11.1 2.2-0.5-1.3-0.9-0.9-0.9-1.8 0.1-2.4 0.3-3.5-2-1.9-2 0.6-1.9 0.8-2.3 0.5-2.2 0.2-3.7-0.8-4.4 0.4-3.8-2.6-3.3-3.7 1.9-4 1.4-1.6 2.6-1 0.9-0.3 1.6-0.7 1.4-1.6 1.3-1.9 1.4-2.5 2.1-4.7 1.2-1.5 4-0.3 3.8 1.1 1.2 1 1.3 0.7 1.1 0.3 0.9 0.4 0.8 0.7 0.9 0 2.9-1.4 3.9-2.6 0.7-0.7 0.4-0.1 0.4-0.2 0.3-3.2 3.8-0.8 2.1-3 0-2.4 0.8-2 1.7-2.5-1-2.5-0.8-0.3-0.7-0.6-1-0.9-0.5-1.1 0.6-0.8 0-0.5-0.4 0 0-0.4 1.4-0.7 5.2-1.3 1.6-0.8 0.3-0.4 0.3 0.2 2.5 0.1 1.7 1.1 0.8 1.6z" id="TR60" name="Tokat">
  </path>
  <text x="555" y="129" font-size="9" font-family="sans-serif" fill="white">TOK</text>

  <path d="M638.8 118.8l3.9 14.9-0.1 3.5 1.7 2.6 2.7 1.4 2.9 2.2 3 1.8 4.8-1.2 5 1.6 4.8 2.4-0.2 3.1-1 2.4-2.2 0-2.1-0.4-2.5 0.6-2.3 1.6-2.3-0.4-2.2-1.7-2.1 1.2-1.8 5.2 0.4 1.9 3.3-0.1 3.5-0.9 1 1.2-0.5 1.7-1 0.2-0.9 0-1.8 0.9-1.2 2.1-2.3 3.1-0.6 6.4-1.1 2.2 0.6 2.3 1.7 1.6 1.5 1 1.1 1.5-0.4 1-1.7 1.1-0.5 0.5-0.4 0.5-0.4 0.5-0.6 0.1 0.2 0.7 0.1 1.1 0 2 0.6 1.8 0.3 1.8-0.2 1.1-0.1 1.2 0.3 0.9 0.2 1-0.4 2.1-1 1.6-3.7 1.3-3.4 2.6-3.1 0.9-3.2-0.5-1.7 0.3-1.6 0.7-3.7 0.1-1.8 0.9-1.7 1.1-1.8 0.8-1.7 1.1-3.9 0.9-4.1-2-2.1 0.5-1 2.4 0.5 2.9 0.8 2.7 0.6 1.3 0.3 1.3-0.8 2.3-3.4 3.7-2 1.3-1.1 0.4-2.4 2.9-2.4 2.2-2.8 1.3-10.7 0.9-1.2-0.6-1.2-0.7-6.1-0.9-6.3 1.5 0.1-2.5 1.2-2 0.3-0.9 0.2-1 1.9-5.6 1.3-4.8 0.9-2.3 1.1-2.2 2-5.8-1.7-5.4-3.8-2.1-4.1-0.7-4.4 0-4.3 1.4-2.4-0.8-2.3-1.8-7.9-1.1-3.6 1.3-4.7-0.7-4.5-3.3-1.6-0.2-1.5-0.6-0.4-0.5-0.6-1.3-0.4-0.6-2.3-1.2-2.5-0.2 1.8-2.1 2.1-1.6 1.5-2 1.2-2.3 1.4-2.3 1.7-2 4.1-3.2 3.4-3.4 1.4-5.1-0.1-1.4-0.5-1.4-1.6-0.9-2.3-4.1-1.4-4.5 11.1-2.2 7.9-0.4 7-2.7 1.5-1.6 0.9-2.4 1-3.7 1.3-3.6 1.7-1 1.8-0.6 5.4 0.8 1.7-0.8 6.3-1.6 4.4-0.6 4 0.2 4-0.6 1.7-1 1.7-1.3 0.6-0.2 0.7 0 1.8-0.4 1.7-0.7 2.8-4.1 2.5-4.9 2.6 5.1 3.6 2.9 1.7-0.2 1.4-1.1 1.4-1.9 1.7-1.3 4 0.2 1-0.6 0.2-1.1-0.5-0.7 0.1-1.8 0.5-0.8 1.9-0.4 2.2-0.2 1.6-0.8 1.4-1.2z" id="TR58" name="Sivas">
  </path>
  <text x="590" y="180" font-size="9" font-family="sans-serif" fill="white">SVS</text>

  <path d="M483.5 71.9l2.5 4.4 0.6 2.3 0.3 2.5 0.7 2.3 3.7-0.4 1.8 0.4 0.4 1.8-0.7 1.6-1 1.2-0.6 1.9-0.2 6.3-0.7 4.1 0.5 1.7 1.9 4.2 1.3 2.2 1.5 1 7.9 1.3 3.6 2.2 1.6 0.3 0.8 0.3 1.2 2.9 0 2.3-1.1 4.5-4.1 6.3-0.5 1.4 0 1.7-0.5 4.2-1.9 0.7-4.6 0.4-0.5 2.8 0.6 0.7-0.1 1-0.5 1.4-0.1 1.2-1.3 1.7-3.7 2.3-2.2 0.2-4-1.2-7.2 3.5-3.8 0.2-1.9-0.2-2.8 1.1-7.3-1.3-4.6 1.5-4.5 2.1-7.5 0.9-2.7 1.3 0-3.2 1.2-2.5 1-1.5 0.2-2.1-0.7-1.8 0-0.7-0.1-0.7-0.9-1-1.2-0.1-1.2-1.2-1.9-4.5-0.6-2.9 3.8-2.2 1-0.2 0.8-0.4 1.4-2.4 1.1-2.6 0.7-0.4 0.1-1.6-0.4-1.6-0.5-1.7-0.7-1.5-1.2-2-0.6-2.3 0.1-2.2-0.3-2.2-1.2-2.4-0.3-2.6 1-2.5 0.6-2.5-2.4-3.9 4.2-0.9 6.7-2.8 1.2-3.1-1.6-1.7-1-0.4-0.9-2.4 0.5-1.2 1.6-2 1.7-4.2 2.2-2 1.1-1.3 1.3-3.4 1.7-2.4 2.5-0.6 1.2 1.6 1.8-0.1 1 0.2 0.8 0.9 1.6 0.3 1.6-0.4 1.4 0.3 1.2 0.9 0.5 0.9 0.8 0.6 5.4 1.7 1-1.2 0.9-0.8 0.2-0.3 0.1-0.5 0.1-1.1 0.1-0.4z" id="TR19" name="Çorum">
  </path>
  <text x="465" y="129" font-size="9" font-family="sans-serif" fill="white">ÇOR</text>

  <path d="M493.1 83.4l14.7 4.2 2.9-0.5 1.6 0.9 6.9 5.3 1.6 2.8 1.6 0.4 3.6-0.2 1.8 0.3 6.3 0.1 3.7 1.8 2-0.5 1.7-1.4 2.2-1.5 1.4-2.5 0.9-2.9 1.9-1.2 1.7 0.6 1.3 1.5 0.6 1.4 0.8 1.4 5.1 3.7-1.4 0.7 0 0.4 0.4 0 0 0.5-0.6 0.8 0.5 1.1 1 0.9 0.7 0.6 0.8 0.3 1 2.5-1.7 2.5-0.8 2 0 2.4-2.1 3-3.8 0.8-0.3 3.2-0.4 0.2-0.4 0.1-0.7 0.7-3.9 2.6-2.9 1.4-0.9 0-0.8-0.7-0.9-0.4-1.1-0.3-1.3-0.7-1.2-1-3.8-1.1-4 0.3-1.2 1.5-2.1 4.7-1.4 2.5-1.3 1.9-1.4 1.6-1.6 0.7-0.9 0.3-2.6 1-1.4 1.6-1.9 4-2.3-0.8-2.5 0.2-2.1-0.2-0.9-0.6-0.4-1.3-0.4-0.2 0.5-4.2 0-1.7 0.5-1.4 4.1-6.3 1.1-4.5 0-2.3-1.2-2.9-0.8-0.3-1.6-0.3-3.6-2.2-7.9-1.3-1.5-1-1.3-2.2-1.9-4.2-0.5-1.7 0.7-4.1 0.2-6.3 0.6-1.9 1-1.2 0.7-1.6-0.4-1.8z" id="TR05" name="Amasya">
  </path>
  <text x="512" y="110" font-size="9" font-family="sans-serif" fill="white">AMA</text>

  <path d="M202.3 176.8l1.8 1.4 2.1 0.5 3.4 0.4 3.4-0.1 2.6-1.6 0.3-4.1 1-2.8 2.2-1.6 1.3-5 1-1 0.5-1.4 1-3.7 2.4-1.7 4.9 2 1.6 0.1 1.5-0.2 1.3-0.7 1.5-0.1-0.8 5.2 0.2 2.7 1.7 3.3 0.7 1 1.9 1.2 1.7 0.7 5.2 3.8 2.1 0.5 3.7-1 3.6-0.4 1.8-0.5 1.8 3 5.2 5 1.3 3.7 0.6 4.7 4.7 6.3 0.9 3.9-3.3 5.1-5.7 2.6-0.9 2.5-0.7 2.7-1.3 2.6-1.3 4.1-1.9 3.2-1.4 1.8-9.8 5.9 0-6.3-2.2-2.6-1.4-0.6-5.9-1.4-3 0.1-1.4 0.4-1.2 0.7-0.8 3.5-1.2 2.8-2.7 0.2-6 1.7-3.4 0.1-3.2-0.4-2.9-1.9-2.8 0-2.6 2.3 0.2-3.9-1-2.8-1.5-2.9 0.4-3.7-0.3-1.1-0.5-1-3.1-4.7-1.3-1-7.2-1.5-1-0.8-2.4-2.7 0.4-0.6-0.2-1.5-0.2-0.8 0.4-2.1 1.8-0.9 3.5-1.2 1.6-1.1 1.4-2.6 0.4-0.9 1.1-1.4 1.1-1.8 0.6-4.3 0.6-1.8 0.6-0.6 0.3-0.7 0-1.2 0.3-1.2 0.9-1.8z" id="TR43" name="Kütahya">
  </path>
  <text x="222" y="196" font-size="9" font-family="sans-serif" fill="white">KÜT</text>

  <path d="M368 352.8l0.4-4-0.8-4-1-1.4-1.5-0.3-2.2-0.2-2-0.8-0.7-1.6 0.5-1.8 1.2-0.9-0.2-1.9-1.5-0.9-1.8-0.8-3.2-3-1.4-1-1.4-1.3-2.1-3-2.4-2.5-3.3-2.3-3-2.8-4-2.6-12.2-2.6-4.7 0-2.1-0.8-1.8-1.5-1.2-1.2-1-1.3 1.3-3.3 0.4-3.6-0.6-2.2-1.2-1.8 0-2.1 2.1-0.6 1.5-2 0.2-2.8 2-3.1-0.1-4.7-1.1-4.7 1-4 1.6-0.9 3.3-1.3 3-1.9 0.4-2-3.5-3-1.1-1.6-1.6-0.7-3.3-2.8-2.9-3.7-3.7-3-1.3-4.5 8.3-5.5 3.7-3.8 4.1-5.4 0.2-1.4-0.2-1.2-0.1-1.2 0.8-3.3 1.4-2.9 3.6-6 0.4-2.4-0.8-0.5-1.5-1.5 0.2-0.8 0.3-0.8 0.6-4 2.8 0.3 3.8-0.7 0.7-0.9 0.3-1.8 0.2-1.8 2 0.9 2.1 1.3 6.8 5.7 1.7 0.5 5-1.5 2.4-0.3 4 1.4 1.6 0.9 1.7 1.6 2 0.2 2.8-2.4 3-1.4 3.6 1.5 2.1-1.2 1.8-2.3 4.8-4 2.3 0.7 2.7 2.2 2.1 0.3 0.7-1.1 0.4-3.2 0.5-1.6 0.9-1.3 2 0 2.1 1.6 0.8 0.5 2.7 0.8 4.7 3.4 2.5 5.9 0.3 3.3-0.2 3.3-0.6 3.6 0.1 3.5 1 2.5 1.3 2.3 1.5 2.2 1 2.4-0.9 1.7-2.7 3.1-1.1 2-0.7 4.8-1.7 2.6-1.1 3.2-0.3 2.3-0.7 2-0.4 5 1.8 4.6 0.6 0.5 0.5 0.6 0.4 2.5 0.7 2.3 3.2 4 1.9 1.8 2.1 0.1 5.6-1.2 7.4-0.5 3.8 0.1 3.7-0.9 3.7-1.5 3.6-0.8 3.5 0.6 0.7 3.1 1.5 2.4 2.3 0.9 2.2 1.2 1.8 2.6 1.7 2.9 1.9 1.8 1.5 2.2 0.5 3.4-1.1 3.1-1.1 1.3-0.7 1.6-0.3 2.7 0 1.7 1.8 2.6 1.2 1 1.8 1.9 1.1 2.6-0.6 1.9-0.9 0.6-2.5 0.9-1.4 0.7-2.1 2.1-2.7 1.3-4.2 1.5-1.3 0.8-1.6 1.9-1.1-2.3-3.2-5.4-2.8-3.1-3.9-4.1-5.3-5.9-1.1-3.8 0.2-0.9-0.4-3-1.9-0.7-4.7-0.2-2.2 1.4-1.4 1.8-2.3 3.1-4.8 1.8-7.4 0.5-7.1 0.9-4.5 1.8-2.5 2.8-5.6 6.2-5.7 7.9-4.5 5.8-1.2 4 0.3 2.1 2.9 1.3 2.9 0.2 0.7 1.6-0.2 1.8-1.4 2.2-6.8 6.7-5.4 4.1z" id="TR42" name="Konya">
  </path>
  <text x="350" y="280" font-size="9" font-family="sans-serif" fill="white">KON</text>

  <path d="M377.3 366.7l-0.9-1.9-1.9-1-1.6-1.1-1.3-1.6-1.9-4-1.7-4.3 5.4-4.1 6.8-6.7 1.4-2.2 0.2-1.8-0.7-1.6-2.9-0.2-2.9-1.3-0.3-2.1 1.2-4 4.5-5.8 5.7-7.9 5.6-6.2 2.5-2.8 4.5-1.8 7.1-0.9 7.4-0.5 4.8-1.8 2.3-3.1 1.4-1.8 2.2-1.4 4.7 0.2 1.9 0.7 0.4 3-0.2 0.9 1.1 3.8 5.3 5.9 3.9 4.1 2.8 3.1 3.2 5.4 1.1 2.3-3.3 1.3-3.6 0.3-1.7 0.7-4.6 3.5-3.5 0.7-1.7 0.9-1.2 0.1-1.6-0.5-3.9 0.4-3.8 1.5-6 0.5-2 0.6-1.7 1-1.5 1.4-1.6 1.1-1.8 0.6-1.5 1.9-0.6 2.6-1 1.7-1.7-0.4-0.4-0.7-0.1-0.5-0.6-0.3-1.4 0.5-2.1 1.4-0.8 0.3-1.8 0.3 0.1 1.9 1 1.2 0.8 1.4 0.4 1.7 0.7 1.6 1.2 0.5 0.9 1.2 1 0.8 2.5 0.7 2.2 1.6 1.1 1.8-1.2 1.6-1.8-0.7-1.7-0.9-0.7 0.1-0.7 0.3-0.7 1.9-0.5 2.1-1.2 1.2-1.5 0.2-2.9-0.1-2.8 0.6-2.7 1.3-2.9 0-3.1-0.8-3.1 0.4z" id="TR70" name="Karaman">
  </path>
  <text x="390" y="326" font-size="9" font-family="sans-serif" fill="white">KRM</text>

  <path d="M478.9 310.3l-3.3-0.8-3.3 1.4-1.5 0.9-1.6 0.6-3.5 0.1-1.1-2.6-1.8-1.9-1.2-1-1.8-2.6 0-1.7 0.3-2.7 0.7-1.6 1.1-1.3 1.1-3.1-0.5-3.4-1.5-2.2-1.9-1.8-1.7-2.9-1.8-2.6-2.2-1.2-2.3-0.9-1.5-2.4-0.7-3.1 15.7-23.4 2.7 0.4 4.1-1.2 2.7-0.1 1.3 0.7 2 2 2.4 0.7 5-1.9 3.3 9.2 2.8 2.9 7.7 0.1 1.3 4.1-0.5 2.5 0.3 2.6 0.9 2.1 0.5 2.2-2.2 1.4-0.2 3.1-0.8 3.6-6.2 6.3-4.7 0.8-2.4-0.8-2.4-0.2-1.5 2.2 0.2 3 1.2 3 0.3 1.7-0.7 2.5-0.7 0.7-0.7 0.6-1.2 1.9-0.2 1.3 0 2.8z" id="TR51" name="Nigde">
  </path>
  <text x="460" y="280" font-family="sans-serif" font-size="9" fill="white">NGD</text>

  <path d="M560.3 254.1l-2-2.1-1.2-3.2-1.8-2.8-2.5-1.1-3.8 1-3.7 2.1-2 1.7-2.1 5-1.3 1.9-2 4.1-2.6 3.5-17.6 12.2 1 11-2.5 1.2-5.8-2.3-4.3-1.1-8.2-0.7 0.8-3.6 0.2-3.1 2.2-1.4-0.5-2.2-0.9-2.1-0.3-2.6 0.5-2.5-1.3-4.1-7.7-0.1-2.8-2.9-3.3-9.2 1.3-2.6 1.9-2 4.2-6.7 0.2-2.9-0.5-2.8 0.2-2.8-3.3-4.3-2.2-4.4 1.3-3.1 1-3.3 0-1.5 0.1-1.5 0.5-1.3 0.7-1.1 10.7 1.7 5.4-3.4 2.1-0.7 15.4-10 4-5.6 2.5 0.2 2.3 1.2 0.4 0.6 0.6 1.3 0.4 0.5 1.5 0.6 1.6 0.2 4.5 3.3 4.7 0.7 3.6-1.3 7.9 1.1 2.3 1.8 2.4 0.8 4.3-1.4 4.4 0 4.1 0.7 3.8 2.1 1.7 5.4-2 5.8-1.1 2.2-0.9 2.3-1.3 4.8-1.9 5.6-0.2 1-0.3 0.9-1.2 2-0.1 2.5-1.6 1-0.9 1.9-0.6 3.2-1.5 2.4-3.7 4.3-1.5 2.2-1.7 1.8z" id="TR38" name="Kayseri">
  </path>
  <text x="520" y="230" font-family="sans-serif" font-size="9" fill="white">KAY</text>

  <path d="M314.6 308.3l-2.5-0.4-2.4 0.9-2.2 1.6-2.6 0.4-4.9 1.7-4.2-1.7-0.7-1.7-1-1.4-1.4-0.2-0.7 0.1-0.9-1.1-0.4-1-2.9-4.4-1.3-2.9-1.6-4.8-2.8-1.8-3 0.1-3.3-0.6-2.1-1.6-1.8-2-2.2-3-2.3-1.6-2.2 2.3-1.3 0.9-1.4 0.7-5.2 3.8-1.8 0.8-1.8-0.6-0.9-1.8-0.7-2 3.7-0.1 3.4-1.9 1.6-2.9 0.6-6.2 1-1.9 3.2-1.9 4.3-4.2 1.9-1.1 2.4-2.2 2.4-2.7 1.7-0.7 1.9-0.5 2.6-2.2 1-0.2 1.1-0.1 3.6-1.4 3-2.8 2.9-3.4 5.9-4.8 2.4-2.6 0.9-0.8 1.2 0.2 0.9 0.6 0.9 0.7 2.1 3.1 1.1 0.7 1.2 0.3 1.3 4.5 3.7 3 2.9 3.7 3.3 2.8 1.6 0.7 1.1 1.6 3.5 3-0.4 2-3 1.9-3.3 1.3-1.6 0.9-1 4 1.1 4.7 0.1 4.7-2 3.1-0.2 2.8-1.5 2-2.1 0.6 0 2.1 1.2 1.8 0.6 2.2-0.4 3.6-1.3 3.3z" id="TR32" name="Isparta">
  </path>
  <text x="290" y="290" font-family="sans-serif" font-size="9" fill="white">ISP</text>

  <path d="M128.9 189.6l3.6-1.9 2.2 1 2.1 1.7 3.3 1 3.3-0.5 2 0.2 1.9 0.9 0.7 0.1 1.5-0.3 0.8 0 1.2 1.9-1.4 2.6-0.6 2.1 1.9 0.9 3.5-1.3 0.8 0.4 0.3 0.9 3.9 4.3 2.5 5.5 2.1 0.7 2-0.8 2.1-0.4 1.8-1.1 1.3-1.7 1.9-0.4 2 0.2 1.8-0.2 1.8-0.5 4.4-2.2 4.1 0.6 2.4 2.7 1 0.8 7.2 1.5 1.3 1 3.1 4.7 0.5 1 0.3 1.1-0.4 3.7 1.5 2.9 1 2.8-0.2 3.9-1.7 1.7-3.7 2.9-0.5 1.2-1.4 1.6-1.4 0.5 0.2 2.1 1.3 0.5 1.1 1.3 0.2 1.4 0 1.4 0.4 3-0.3 2.8-0.7 1.9-0.9 1.5-1.3 1.2-0.5 0.9 1.2 0.9 1.5 0 1.7 2-4.4 1-2.1 4.1 0.2 1.6-0.6 1.5-2 0.9-2.1 0-6.5-0.1-2.1-3.2-2-6.2-1.3-1.7-2.1-0.6-1.1-0.1-1.7-0.5-0.9-1.1-1.3-0.2-1.8 0.6-4.6 0.7-1.3-3-2-2.1-1.4 0.4-1.4-0.1-2.3-1-2.3-0.1-0.8 1.9-1.1 2-2.4 0.6-2-1.9-0.4-0.9-0.5-1.9-0.4-0.9-3.7-1.7-3.3-2.3-0.8-3.4-1.5-1.4-0.9-0.2-5.4 0.2-3.3-0.3-2.8-2.5-1.3-4.2-1.1-1.4-0.7-0.3-1.3-1.3 0.2-1.3 1.3-2.2 1.5-1.5 0.8-2 0.3-2.4 0.6-2.2 2.6-1.8 3-1.2 3.1-2.6 1.3-1.5 0.3-3.2-1.7-3.3-0.8-2.2-1.6-7.4-1.8-4.7z" id="TR45" name="Manisa">
  </path>
  <text x="150" y="235" font-family="sans-serif" font-size="9" fill="white">MAN</text>

  <path d="M185.3 305l-0.2-0.9-0.4-0.8-0.5-0.4-0.5-0.2-0.6-2.2 1-2.2 3.3-1 3.7 0.4 2.5-2.4 2.2-3.1 1.9-0.1 1.4-1 0.2-1.7-0.5-1.4-3-0.6-1-1.5-0.8-1.6-1-1.4 0.1-1.5 1.1-0.8 0.4-1.3-0.7-3.6 0.1-2.1-0.6-1.7-2.7-1.9-0.6-1.3-0.5-1.4 2.1 0 2-0.9 0.6-1.5-0.2-1.6 2.1-4.1 4.4-1 2.9 0.6 2.5 1.6 2.7 0 2.4-1.7 1.7 0.3 1.5 1.7 1.6 0.1 1.5-0.5 0.7-0.4 0.6-0.3 1.2 0.8 0.5-0.1 0.7-1.2 0-0.7 2.4-1.9 3.4 0.4 3.6-0.1 1.7-0.5 1.5-1.4-0.4-3.6 0.5-3.6 5.9-1.3 6.5 1.5 5.1 8.6 1.3 1.5 0.7 4-1.3 1.5-12.8 9.6-1.5 0.8-1.5 0.6-0.7 1.8-0.1 6.1 1.2 0.5 2.2-0.1 0.6 0.3 1.3 0.7 0.7 0.2 0.5 0.4 2.2 3.7-3.4 2.8-2 1.2-0.7 0.3-1.4 0.8-0.6 1.3-0.5 1.3-6 3.3-0.1 1.5 0.5 1.7-0.1 2.4 0.6 2.2 0.4 0 0.2 0 0.3 0.3 0.3 0.4 0.2 0.9-0.1 0.5-2.1 4.2-4.7 7-1.3 2.9-0.8 3.1-0.4 3.2-2.2 1.8-0.3 3.9-0.6 1.5-0.9 1.3-1.7 0.8-4.7-2.6-2.6-0.2-1.2-1.1-0.2-1-0.1-1.9-0.4-2.3-0.7-2.3-2.8-2.8-3.5-1.6-0.6-0.6-0.8-1.6-0.6-0.6-3.5-0.6-1.6-2.3-0.7-2.7-1.4-2.5-2.2-0.9-1.7 0-1.2-0.4-0.5-1.8 0-1.7 0.2-1.2-0.6-1z" id="TR20" name="Denizli">
  </path>
  <text x="206" y="295" font-family="sans-serif" font-size="9" fill="white">DEN</text>

  <path d="M236.6 338.5l-4-5.6-5.7 0.8-2.3 2.9-1.9-0.7 0.8-3.5-1.1-3 0.4-3.2 0.8-3.1 1.3-2.9 4.7-7 2.1-4.2 0.1-0.5-0.2-0.9-0.3-0.4-0.3-0.3-0.2 0-0.4 0-0.6-2.2 0.1-2.4-0.5-1.7 0.1-1.5 6-3.3 0.5-1.3 0.6-1.3 1.4-0.8 0.7-0.3 2-1.2 3.4-2.8 3.8-1.4 4.2 0.3 0.7 2 0.9 1.8 1.8 0.6 1.8-0.8 5.2-3.8 1.4-0.7 1.3-0.9 2.2-2.3 2.3 1.6 2.2 3 1.8 2 2.1 1.6 3.3 0.6 3-0.1 2.8 1.8 1.6 4.8 1.3 2.9 2.9 4.4 0.4 1 0.9 1.1 0.7-0.1 1.4 0.2 1 1.4 0.7 1.7-3.3 2.9-0.9 2.6-2.9 3.1-1.8 0.5-3.7 0-4.3-0.5-6.6 0.3-1.1-0.4-2.9-3.6-2.9-0.4-7 3-2.9 0.5-8.6 4.4-2.6 3.6-0.7 4.4-1.9 3.5-1.3 1.3-1.1 1.6-1.3 0.7-1.4 0.2z" id="TR15" name="Burdur">
  </path>
  <text x="250" y="310" font-family="sans-serif" font-size="9" fill="white">BRD</text>

  <path d="M416 234.6l4.1-1.1 3.9-2.2 4.2-1.2 4.2 0.2 1.8-0.9 4-3.8 0.1-3.6-1.9-5.1 1.6-4.1 0.7 1 1.9 0.4 1.1-0.1 1.8 0.8 0.7 2.5 1.9 1.6 2.4-1.4 1-0.3 2 0.3 1-0.2-0.5 2.5 1.6 5.4-0.8 3.1-1.7 2.7 0.7 3.1 2.2 1.4 2.4 0.7 2-0.4 1 0.3 0.4 2.8-1.4 3.1 0 2.9 0.9 0.8 1.9 1.5 1.6 1.7 1.8 1.1-15.7 23.4-3.5-0.6-3.6 0.8-3.7 1.5-3.7 0.9-3.8-0.1-7.4 0.5-5.6 1.2-2.1-0.1-1.9-1.8-3.2-4-0.7-2.3-0.4-2.5-0.5-0.6-0.6-0.5-1.8-4.6 0.4-5 0.7-2 0.3-2.3 1.1-3.2 1.7-2.6 0.7-4.8 1.1-2 2.7-3.1 0.9-1.7z" id="TR68" name="Aksaray">
  </path>
  <text x="430" y="250" font-family="sans-serif" font-size="9" fill="white">AKS</text>

  <path d="M484.8 250.7l-5 1.9-2.4-0.7-2-2-1.3-0.7-2.7 0.1-4.1 1.2-2.7-0.4-1.8-1.1-1.6-1.7-1.9-1.5-0.9-0.8 0-2.9 1.4-3.1-0.4-2.8-1-0.3-2 0.4-2.4-0.7-2.2-1.4-0.7-3.1 1.7-2.7 0.8-3.1-1.6-5.4 0.5-2.5 5.3 4.5 1.9-0.5-0.2-1.4-0.5-2.7 1-3.3 5.7-2.4 2.6-1.6 3-1.3 1.9-2.6-1-2.3-1.4-2.5 0.6-4-0.6-3.1-1-1.9-0.4-2.2 0.2-1.4 1-0.6 3 0.8 2.8-0.5 0.7 0.2 1.4 0.6 0.4 0.8 0.2 1.3 0.4 1.2 1.2 1.4 1.5 0.8 1 1.9 0.6 2.4 3.8 2.4 1.1 1.9-0.5 1.4 0.2 1.4 0.4 1.3 0.7 1.5 0.7 1.5-0.7 1.1-0.5 1.3-0.1 1.5 0 1.5-1 3.3-1.3 3.1 2.2 4.4 3.3 4.3-0.2 2.8 0.5 2.8-0.2 2.9-4.2 6.7-1.9 2-1.3 2.6z" id="TR50" name="Nevsehir">
  </path>
  <text x="466" y="236" font-family="sans-serif" font-size="9" fill="white">NEV</text>

  <path d="M513 139.7l3.3 3.7 3.8 2.6 4.4-0.4 3.7 0.8 2.2-0.2 2.3-0.5 1.9-0.8 2-0.6 2 1.9-0.3 3.5-0.1 2.4 0.9 1.8 0.9 0.9 0.5 1.3 1.4 4.5 2.3 4.1 1.6 0.9 0.5 1.4 0.1 1.4-1.4 5.1-3.4 3.4-4.1 3.2-1.7 2-1.4 2.3-1.2 2.3-1.5 2-2.1 1.6-1.8 2.1-4 5.6-15.4 10-2.1 0.7-5.4 3.4-10.7-1.7-0.7-1.5-0.7-1.5-0.4-1.3-0.2-1.4 0.5-1.4-1.1-1.9-3.8-2.4-0.6-2.4-1-1.9-1.5-0.8-1.2-1.4-0.4-1.2-0.2-1.3-0.4-0.8-1.4-0.6-0.7-0.2-1.3-2.9-2-1.8-2.4-0.4-2.1-1.4-6.6-8-0.6-1.3-0.4-1.4-0.9-1.3-3.7-0.1-2.2-0.7-2.4-2.7-2.5-2.3-2.6-0.1-0.9-0.8-1-1-0.5-1.3 0.2-1.3-0.2-1.3-0.5-1.2 2.7-1.3 7.5-0.9 4.5-2.1 4.6-1.5 7.3 1.3 2.8-1.1 1.9 0.2 3.8-0.2 7.2-3.5 4 1.2 2.2-0.2 3.7-2.3 1.3-1.7 0.1-1.2 0.5-1.4 0.1-1-0.6-0.7 0.5-2.8 4.6-0.4 1.9-0.7 0.4 0.2 0.4 1.3 0.9 0.6 2.1 0.2 2.5-0.2 2.3 0.8z" id="TR66" name="Yozgat">
  </path>
  <text x="490" y="180" font-family="sans-serif" font-size="9" fill="white">YOZ</text>

  <path d="M438 212.8l0.4-2-3-1.1-0.6-0.7-1.6-0.6-2.5-0.2-1-0.7-0.7-1.2-0.7-0.6-0.8-0.3-2.4-2-5.4-3.4-0.9-3.4 5.3-9.3 7.7-6.3 3.3-5.2 2.1-6.3 7.6-7.3 1 1 0.9 0.8 2.6 0.1 2.5 2.3 2.4 2.7 2.2 0.7 3.7 0.1 0.9 1.3 0.4 1.4 0.6 1.3 6.6 8 2.1 1.4 2.4 0.4 2 1.8 1.3 2.9-2.8 0.5-3-0.8-1 0.6-0.2 1.4 0.4 2.2 1 1.9 0.6 3.1-0.6 4 1.4 2.5 1 2.3-1.9 2.6-3 1.3-2.6 1.6-5.7 2.4-1 3.3 0.5 2.7 0.2 1.4-1.9 0.5-5.3-4.5-1 0.2-2-0.3-1 0.3-2.4 1.4-1.9-1.6-0.7-2.5-1.8-0.8-1.1 0.1-1.9-0.4-0.7-1z" id="TR40" name="Kirsehir">
  </path>
  <text x="438" y="200" font-family="sans-serif" font-size="9" fill="white">KIR</text>

  <path d="M205.4 229.4l2.6-2.3 2.8 0 2.9 1.9 3.2 0.4 3.4-0.1 6-1.7 2.7-0.2 1.2-2.8 0.8-3.5 1.2-0.7 1.4-0.4 3-0.1 5.9 1.4 1.4 0.6 2.2 2.6 0 6.3-0.3 2.5-0.7 2.3-2.9 2.8-0.6 2.4-0.9 2.5-1.1 1.4 0.1 1.7-5.9 1.3-0.5 3.6 0.4 3.6-1.5 1.4-1.7 0.5-3.6 0.1-3.4-0.4-2.4 1.9 0 0.7-0.7 1.2-0.5 0.1-1.2-0.8-0.6 0.3-0.7 0.4-1.5 0.5-1.6-0.1-1.5-1.7-1.7-0.3-2.4 1.7-2.7 0-2.5-1.6-2.9-0.6-1.7-2-1.5 0-1.2-0.9 0.5-0.9 1.3-1.2 0.9-1.5 0.7-1.9 0.3-2.8-0.4-3 0-1.4-0.2-1.4-1.1-1.3-1.3-0.5-0.2-2.1 1.4-0.5 1.4-1.6 0.5-1.2 3.7-2.9 1.7-1.7z" id="TR64" name="Usak">
  </path>
  <text x="209" y="248" font-family="sans-serif" font-size="9" fill="white">USA</text>

  <path d="M667.5 148l2 0.1 4.2-0.3 1.9-0.9 1.3 0.8 1.4 0.6 1.4 0.3 1.4 0.3 5.2 3.1 1.8 0.7 1.8 1.1 0.7 1.1 0.8 0.8 2.9 0.9 2.8 1.4 2.9 0.3 2.8-0.3 2.8 0.2 2.7-0.2 2.6-1.3 5.3-1.3 2.1-2.2 1.8-2.7 2.5-1 2.7 0.3 2.4-0.3 1.9-1.8 2.3-0.8 7.7 1.5-1.4 3.3-0.4 3.6 2.5 1.3 8.1 0.1 3.2 4.2-0.1 1.8 0.2 1.7 0.7 1.2 0.8 1.1 1.8 1.4 2 0.8 1.6 1.8-1.1 2.6-1.7 3.1-0.1 3.9-3.1-1.1-3.9-0.1-3.8-0.6-7.1-0.2-0.9-0.5-1.8-0.7-0.5 0-0.2 0.2-1.5 0.4-1.8 0.9-1 0.1-4.4 1.6-3.7-1-2.5-1.5-1.8 0.6-2.2 2.7-3.3 1.1-7.2 1.1-3.8 0.1-3.6-1-3.7-0.2-1.9 1-2 0.5-2.4-0.4-2.5 0.5-4.7 1.8-1.3 1-0.9 1.7-1.2 0.6-1.3-0.1-0.7 1-0.6 1-0.5 0.3-2.9 1.1-0.7 1.9 0.6 1.9 0.7 1.1-1.3 0.8-1.3 0.3-1.1 0.7-0.7 3.5-1.1 0.5-0.2 0-0.4 0.4-0.2 1.4 0.2 1.4 0.4 0.3 0.4 0.4 0.4 3.8-1.5 0.3-1.2 0.6-3.1-3.6-2-1.2-2.2-0.9-4.5-0.2-3.7-1.9 1-1.6 0.4-2.1-0.2-1-0.3-0.9 0.1-1.2 0.2-1.1-0.3-1.8-0.6-1.8 0-2-0.1-1.1-0.2-0.7 0.6-0.1 0.4-0.5 0.4-0.5 0.5-0.5 1.7-1.1 0.4-1-1.1-1.5-1.5-1-1.7-1.6-0.6-2.3 1.1-2.2 0.6-6.4 2.3-3.1 1.2-2.1 1.8-0.9 0.9 0 1-0.2 0.5-1.7-1-1.2-3.5 0.9-3.3 0.1-0.4-1.9 1.8-5.2 2.1-1.2 2.2 1.7 2.3 0.4 2.3-1.6 2.5-0.6 2.1 0.4 2.2 0 1-2.4 0.2-3.1z" id="TR24" name="Erzincan">
  </path>
  <text x="667.5" y="170" font-family="sans-serif" font-size="9" fill="white">ERC</text>

  <path d="M666.7 210.6l-0.4-3.8-0.4-0.4-0.4-0.3-0.2-1.4 0.2-1.4 0.4-0.4 0.2 0 1.1-0.5 0.7-3.5 1.1-0.7 1.3-0.3 1.3-0.8-0.7-1.1-0.6-1.9 0.7-1.9 2.9-1.1 0.5-0.3 0.6-1 0.7-1 1.3 0.1 1.2-0.6 0.9-1.7 1.3-1 4.7-1.8 2.5-0.5 2.4 0.4 2-0.5 1.9-1 3.7 0.2 3.6 1 3.8-0.1 7.2-1.1 3.3-1.1 2.2-2.7 1.8-0.6 2.5 1.5 3.7 1 4.4-1.6 1-0.1 1.8-0.9 1.5-0.4 0.2-0.2 0.5 0 1.8 0.7 0.9 0.5 7.1 0.2 3.8 0.6 3.9 0.1-1.8 2.3-2.4 1.1-1.3-0.1-2.2-0.4-0.8 0.7-1.3 2.7-2.2 1.6-2.3 0-2.2 0.8-0.4 1.2-0.4 1-0.7 0.3-3.3-0.2-2.4 0.8-0.7 1.2-0.2 3-0.6 1.6-0.2 1.6 1 4.6-0.4 2.1-0.8 1.9-2.6 0.1-2.3 0.6-0.9 0.6-0.7 1 0.5 2.3 0.3 2.2-0.7 2.9-1.3 2.6-2.9 3.2-4.4 1.7-4.6 0.4-1.7-0.2-1.7 0.4-1.2 1.5-1.4 1.1-1.2-0.4-1.2-0.6-0.8 0.2-0.4 0.1-1.1-1.3-0.9-0.7-2.1-0.6-2-1.5-2.2-1-2-0.2-1.9-0.6-1.5-0.1-1.5-0.9-0.5 0-0.9 0.2-0.5 0.1-2-0.9-3.7 0.3-3.7 1-1.4-0.1-2-2 0-1.7 0.7-1.6-0.1-1.8-1.8-2.7z" id="TR62" name="Tunceli">
  </path>
  <text x="685" y="210.6" font-family="sans-serif" font-size="9" fill="white">TUN</text>

  <path d="M272.4 200.3l1.7 0.4 1.3 1.3 0.7 1.9 1.1 1.4 0.8 0.5 0.8 0.6 2.1 1.2 2.2-0.4 1.7-0.8 3.2-2.1 3-3 1.6-1.3 2.4 1.1 2.1 2.4 3.4-1.5 3.5-2.7 1.8-0.5 1.7-1.1 1.7-1.5 1.9-0.5 3.4 3.5 2.3 5.4 3.6 2.7 6.1-0.6 3.7 0.1 1.8 0.5-0.6 4-0.3 0.8-0.2 0.8 1.5 1.5 0.8 0.5-0.4 2.4-3.6 6-1.4 2.9-0.8 3.3 0.1 1.2 0.2 1.2-0.2 1.4-4.1 5.4-3.7 3.8-8.3 5.5-1.2-0.3-1.1-0.7-2.1-3.1-0.9-0.7-0.9-0.6-1.2-0.2-0.9 0.8-2.4 2.6-5.9 4.8-2.9 3.4-3 2.8-3.6 1.4-1.1 0.1-1 0.2-2.6 2.2-1.9 0.5-1.7 0.7-2.4 2.7-2.4 2.2-1.9 1.1-4.3 4.2-3.2 1.9-1 1.9-0.6 6.2-1.6 2.9-3.4 1.9-3.7 0.1-4.2-0.3-3.8 1.4-2.2-3.7-0.5-0.4-0.7-0.2-1.3-0.7-0.6-0.3-2.2 0.1-1.2-0.5 0.1-6.1 0.7-1.8 1.5-0.6 1.5-0.8 12.8-9.6 1.3-1.5-0.7-4-1.3-1.5-5.1-8.6-6.5-1.5-0.1-1.7 1.1-1.4 0.9-2.5 0.6-2.4 2.9-2.8 0.7-2.3 0.3-2.5 9.8-5.9 1.4-1.8 1.9-3.2 1.3-4.1 1.3-2.6 0.7-2.7 0.9-2.5 5.7-2.6 3.3-5.1z" id="TR03" name="Afyonkarahisar">
  </path>
  <text x="272.4" y="230" font-family="sans-serif" font-size="9" fill="white">AFY</text>

  <path d="M418.8 196.6l-3.8-7.4-1.9-8.8-1.3-2.3-3.8-4.6-1.2-5.3 1.4-5.2 1.2-5.2 2.2-5.3 3.5-1.5 5.5-0.6 0.6-3.6-0.3-3.7 0-4.2 0.6-3.5 0.6-5.1 13.1 4.2 4.4 0.4 0.6 2.9 1.9 4.5 1.2 1.2 1.2 0.1 0.9 1 0.1 0.7 0 0.7 0.7 1.8-0.2 2.1-1 1.5-1.2 2.5 0 3.2 0.5 1.2 0.2 1.3-0.2 1.3 0.5 1.3-7.6 7.3-2.1 6.3-3.3 5.2-7.7 6.3-5.3 9.3z" id="TR71" name="Kinkkale">
  </path>
  <text x="415" y="168" font-family="sans-serif" font-size="9" fill="white">KRK</text>

  <path d="M613.5 302.5l-0.1 1.8 0.3 1.7-0.6 2.7-2 1.4-3-0.1-3 0.4-6.3 2.2-6 1.1-2.6 1.3-4.3 4.6-3.7-1.2-1.3-5.3-2.3-1.5-2.3 3.1-5.7 2.6-2.1-3.1-2.6-2.4-1.6-1.1-1.8-0.5-3.9 0.8-1.3 0.3-1.8 0.6-1.6 0.3-0.8-0.9-0.6 0.3-0.5 0.2-0.5 0.2-0.3 0.6-0.5 0.1-1.9-2.4-0.3-4-0.5-0.7-0.6-0.7-0.6-1.7 0.4-1.8 1.3-1.4 1.1-1.8 0-4.7 1.3-1.7 0.9-0.5 1.6-1.6 0.1-2.4-1.5-3.7-0.3-2.9 0.1-1.8 0.6-4 1.4-3.8 2.4-10.7 1.5-3.8 2.6-2.5 1.7-1.8 1.5-2.2 3.7-4.3 1.5-2.4 0.6-3.2 0.9-1.9 1.6-1 6.3-1.5 6.1 0.9 1.2 0.7 1.2 0.6 10.7-0.9-2.8 4.7 0.6 3.6 0.8 0 1.8-0.4 0.9-0.1 7 1.5 6.1 3.6 3.2 1 3.7 1.7 2.4 4.1-0.3 2.5-2.6 6.9-0.3 1.8-0.9 1.4-0.7 0.8-1.1 1.8-2.5 8.8-1.9 3.6-2.3 2.9-2.7 2.3-1.8 2.4-0.1 3.5 1.7 2.8 2.8 1 5.2 3.2z" id="TR46" name="K. Maras">
  </path>
  <text x="573" y="290" font-family="sans-serif" font-size="9" fill="white">KAH</text>

  <path d="M841.7 182.8l1.4 3.8 1.9 3.4 1.5 1.4 1.5 1.7 0.8 1.7 1.2 1.2 1.7 2.5-0.2 4 0.2 0.8 0.1 0.9-0.5 2.4-0.4 3 0.2 3.2-3.5 2.8-3.9 1.5-7.7-0.9-1.7 0.6-1.5 1.1-1.9 0.8-2.1 0.2-0.9 0.7-0.6 2.8-1 0.9-4.2-0.1-0.9 2.2 1.5 2.4 0.3 2.6-2 1.7-2.8 3.1-3.3 1.9-8.1-0.6-7.3 2.8-0.5 0.8-2.7 0.3-2.6 0.9-1.4-0.5-0.6-1.6 0.6-2.5-0.6-2.4-3.2-2.3-2.4-3.2-0.3-1.6-0.6-1.4-1-0.9-0.6-0.2-1-1.4-1-3.5 1.4-4.8 3.3-4.1 0.6-2.4-0.3-2.7-1.3-2.4-0.9-0.9-1.1-1.9 0.1-1.9 0-1-0.4-1.1-0.3-0.5-0.8-1.8 0.3-1.4 1.3-2.4 7.6-1.3 3.8 0.9 1.8 1.2 4.6 4.6 2.8 3.9 1.1 1 4.1 1.6 4.1 0.2 1.8-1.4 2-1.2 5.8-1 1.5-1.3 0.9-1.1 3.2-2 1.4-2.3-0.3-2.8 1-2.7 6.5-3.3 1.8-0.1 1.8-0.3 0.9-0.3z" id="TR49" name="Mus">
  </path>
  <text x="800" y="220" font-family="sans-serif" font-size="9" fill="white">MUŞ</text>
  <path d="M834.5 93.6l1 4.9 2.4 3.7 1.8 1.2 1.3 1.7 1 2.4 1.4 2.1 1.9 1.9 1.4 2.6-0.3 2.1-0.7 2.2 1.1 6.2-1.9 1.2-2 0.9-1.6 1.1-1.5 1.2-3 1.7-6.9 2.4-1.5 3.3 1.7 2 1 1.7 1.1 1.3 4.1 0.7 1.5 0.5 1.4 1 0.8 1.1 0.6 1.3 0.8 0.6 1 0.3 1.9 0.8 1.2 1.9 1.1 2.5 1.4 2.3-1.3 1.5-1.6 0.9-1.2-0.1-0.6 0.1-1.2 0.5-1 1.5-1.7 0.6-3.6-0.6-1.7 0.7 3.9 4.7 6.7 2.8-0.6 0.4-0.5 1.7 0.1 8.3-0.5 2.9-1.5 2.5-0.9 0.3-1.8 0.3-1.8 0.1-6.5 3.3-1 2.7 0.3 2.8-1.4 2.3-3.2 2-0.9 1.1-1.5 1.3-5.8 1-2 1.2-1.8 1.4-4.1-0.2-4.1-1.6-1.1-1-2.8-3.9-4.6-4.6-1.8-1.2-3.8-0.9-7.6 1.3-2-3.5-2.1-2.5-2.9-0.3-3.5-1.7-4.6-4.3-1.5-0.9-1.4 0.7-1.4 1-4.2 1.9-4.2-0.6 0.1-3.9 1.7-3.1 1.1-2.6-1.6-1.8-2-0.8-1.8-1.4-0.8-1.1-0.7-1.2-0.2-1.7 0.1-1.8-3.2-4.2-8.1-0.1-2.5-1.3 0.4-3.6 1.4-3.3 7.8 1 1.7-0.3 2.1-1.6 2-2 2.7-1.3 5.9-2.1 1.3-1.7 1.2-2.2-0.2-1.2-3.1-0.3-1.4-0.6-3.1-0.7-2.9-1.7-1.2-3.8-1.4-8.5-1.5-3.8 7.7-3.8 1.9-0.6 1.9-0.2 2.9-0.8 1.4-3.6 1.7-0.7 2.1 0 2-0.7 5.1-4.4 3.6-2.1 3.7 2.1 5.9 0.9 1.7 0.6 0.4 2.1-1.3 2.2-0.6 5.3 3.2 2.9 4.4-1.7 4-2.6 3.7-1.1 3.8 1.1 4 2.3 2.2-3.3 0.1-2.8 0.9-2.5 1.9-1.9 1.2-2.5-0.3-2.7 0.6-2.5 1.5-1.3 1.6-0.8 3.2-0.3 3.3 0.3 2.8-0.6 2.8-0.3z" id="TR25" name="Erzurum">
  </path>
  <text x="780" y="150" font-family="sans-serif" font-size="9" fill="white">ERZ</text>
  <path d="M597.3 237.1l2.8-1.3 2.4-2.2 2.4-2.9 1.1-0.4 2-1.3 3.4-3.7 0.8-2.3-0.3-1.3-0.6-1.3-0.8-2.7-0.5-2.9 1-2.4 2.1-0.5 4.1 2 3.9-0.9 1.7-1.1 1.8-0.8 1.7-1.1 1.8-0.9 3.7-0.1 1.6-0.7 1.7-0.3 3.2 0.5 3.1-0.9 3.4-2.6 3.7-1.3 3.7 1.9 4.5 0.2 2.2 0.9 2 1.2 3.1 3.6-3.4 0.2-1.3 1.7 0 2.5 0.8 1.6 0.6 1.8 0.2 3.7 0 1.4 0.6 1.8-0.2 0.4 0.1 0.8-0.1 0.6-0.6 0.3-5.2-0.5-1.2 0.2-0.6 0.7 0.3 1-0.3 1.1-0.5 0.9-0.7 0.4-1.2 0.2-0.9 0.5-0.7 0.8-0.6 0.9-0.2 0.7-0.3 1.1-0.7 1.3 0.1 0.4 0.3 0.3 0.2 0.6 0.1 1 0.4 1.2 0.7 1.1 0.7 0.7 0.6-0.6 0.5 0.3 0.8 1.1 0.7 0.6 0.6 0.3 0.6 0.2 2.7 0.4 1.3 0.3 0.2 0.1 0.8 0.8 0.3 0 0.3-0.2 0.4 0 3.8 2 1.4 0.1 2.9-1.1 1.5-0.2 1.1 0.8-0.3 0.5 1.2 0.8 0.4 0.4 1.1 1.8 0 0.3 1.3 0.2 0.8 0.5 1.4 1.3 1.6 0.3 3.9-1.3 1.9 0.2 0.9 0.9 0.6 1.3 0.1 1.4-1.6 5.6-2.1 2.5-2.6 1.2-2 0.5-1.9 0.9-1.3 0.3-1.4 0-3.5 0.7-3.3-0.4-3.3 0-2.8-0.8-0.8-0.5-0.8-0.4-0.3-1.3 1-0.6 1.8-1.8-0.2-1.9-2.8-0.6-2.8 0.8-3.3 0.1-3.5 3.9-3 4.5-3.7 2.1-1.2 2.3-0.1 3.2-2.9 2.6-4 1-1.7 0.8-1.7 0.6-2-0.3-2-0.6-4.4 0.6-4.2 1.7-6.7 1.3 1.9-3.6 2.5-8.8 1.1-1.8 0.7-0.8 0.9-1.4 0.3-1.8 2.6-6.9 0.3-2.5-2.4-4.1-3.7-1.7-3.2-1-6.1-3.6-7-1.5-0.9 0.1-1.8 0.4-0.8 0-0.6-3.6 2.8-4.7z" id="TR44" name="Malatya">
  </path>
  <text x="625" y="250" font-family="sans-serif" font-size="9" fill="white">MAL</text>
  <path d="M664 211.5l1.2-0.6 1.5-0.3 1.8 2.7 0.1 1.8-0.7 1.6 0 1.7 2 2 1.4 0.1 3.7-1 3.7-0.3 2 0.9 0.5-0.1 0.9-0.2 0.5 0 1.5 0.9 1.5 0.1 1.9 0.6 2 0.2 2.2 1 2 1.5 2.1 0.6 0.9 0.7 1.1 1.3 0.4-0.1 0.8-0.2 1.2 0.6 1.2 0.4 1.4-1.1 1.2-1.5 1.7-0.4 1.7 0.2 4.6-0.4 4.4-1.7 2.9-3.2 1.3-2.6 0.7-2.9-0.3-2.2-0.5-2.3 0.7-1 0.9-0.6 2.3-0.6 2.6-0.1 10.9-5.9 1.6-0.5 3.9-1.7 1.5 2.9-2 3.9-2.4 3.3-1 4.3 1.2 4.8 2.9 3.5 0.8 2-0.3 2.2-0.6 2.4-0.9 1.6-1.6-0.5-1.4-0.3-2.3 6.4 2.6 3.8 0.5 2.7 0.2 2.8-15.9 0.5-0.8-0.3-1.7-1.3-1-0.5-2.2 0.4-0.7 2-1.1 1.9-1.2 1.9-1.4 0.9-1.6 0.6-3.7-0.2-3.6 0.3-1.3 0.8-3.7 0.5-2 0.8-4-0.3-3.9-1-6.6 1.1-1.9-0.2-3.9 1.3-1.6-0.3-1.4-1.3-0.8-0.5-1.3-0.2 0-0.3-1.1-1.8-0.4-0.4-1.2-0.8 0.3-0.5-1.1-0.8-1.5 0.2-2.9 1.1-1.4-0.1-3.8-2-0.4 0-0.3 0.2-0.3 0-0.8-0.8-0.2-0.1-1.3-0.3-2.7-0.4-0.6-0.2-0.6-0.3-0.7-0.6-0.8-1.1-0.5-0.3-0.6 0.6-0.7-0.7-0.7-1.1-0.4-1.2-0.1-1-0.2-0.6-0.3-0.3-0.1-0.4 0.7-1.3 0.3-1.1 0.2-0.7 0.6-0.9 0.7-0.8 0.9-0.5 1.2-0.2 0.7-0.4 0.5-0.9 0.3-1.1-0.3-1 0.6-0.7 1.2-0.2 5.2 0.5 0.6-0.3 0.1-0.6-0.1-0.8 0.2-0.4-0.6-1.8 0-1.4-0.2-3.7-0.6-1.8-0.8-1.6 0-2.5 1.3-1.7 3.4-0.2z" id="TR23" name="Elazig">
  </path>
  <text x="680" y="240" font-family="sans-serif" font-size="9" fill="white">ELA</text>
  <path d="M851.1 212.8l2-1.3 2.3-0.7 1.6-1 1.6-1.3 8.8-1.9 0.1 4.6 1.4 3.1 5.6 3.4 1.9 3-1.4 4.5-3.4 2.6-2.6 2.8-4.4 6.5-0.8 1.9-1 1.7-3 2.1-5.1 2.9-0.8 0.9-0.5 2.5 0.3 1.3 1.7 3.9 0.2 0.7 0.1 1.6-0.5 2.1 0.9 3.1 2.5 0.9-1.3 4-0.6 0.7-0.5 0.8 0 1.8 0.2 1.9-0.2 2.8-1.4 2.1-1.8 0.2-3.2-2.4-4.8-2.7-3-2.2-2.1-0.9-3.3-0.8-3.4-1.4-3.1-2.4-2.8-2.8-3.2-1.5-4.1 1.6-4.1 1-5.1-0.4-4.9-1.9-0.1-1.3 0.2-1.4 0-2.2-0.2-2.2-1.1-3.3-1.7-8.2-4-1.5 0.5-0.8 7.3-2.8 8.1 0.6 3.3-1.9 2.8-3.1 2-1.7-0.3-2.6-1.5-2.4 0.9-2.2 4.2 0.1 1-0.9 0.6-2.8 0.9-0.7 2.1-0.2 1.9-0.8 1.5-1.1 1.7-0.6 7.7 0.9 3.9-1.5 3.5-2.8z" id="TR13" name="Bitlis">
  </path>
  <text x="825" y="250" font-family="sans-serif" font-size="9" fill="white">BIT</text>
  <path d="M752.6 179.2l3.1 1.1 4.2 0.6 4.2-1.9 1.4-1 1.4-0.7 1.5 0.9 4.6 4.3 3.5 1.7 2.9 0.3 2.1 2.5 2 3.5-1.3 2.4-0.3 1.4 0.8 1.8 0.3 0.5 0.4 1.1 0 1-0.1 1.9 1.1 1.9 0.9 0.9 1.3 2.4 0.3 2.7-0.6 2.4-3.3 4.1-1.4 4.8 1 3.5 1 1.4 0.6 0.2 1 0.9 0.6 1.4 0.3 1.6-2.3 1.7-5.8 2.2-5.9 3.6-3.1 0.9-8.1-0.3-2.3-0.6-1.7-0.2-4.6 0.7-2.7 1.3-0.3 1.7 0 1.8-1.3 2-1.9 0.9-5.5 0.2-0.2-2.8-0.5-2.7-2.6-3.8 2.3-6.4 1.4 0.3 1.6 0.5 0.9-1.6 0.6-2.4 0.3-2.2-0.8-2-2.9-3.5-1.2-4.8 1-4.3 2.4-3.3 2-3.9-1.5-2.9-3.9 1.7-1.6 0.5-10.9 5.9 0.8-1.9 0.4-2.1-1-4.6 0.2-1.6 0.6-1.6 0.2-3 0.7-1.2 2.4-0.8 3.3 0.2 0.7-0.3 0.4-1 0.4-1.2 2.2-0.8 2.3 0 2.2-1.6 1.3-2.7 0.8-0.7 2.2 0.4 1.3 0.1 2.4-1.1 1.8-2.3z" id="TR12" name="Bingöl">
  </path>
  <text x="752.6" y="220" font-family="sans-serif" font-size="9" fill="white">BIN</text>
  <path d="M570.6 317.3l-2.2 2.5-1.8 2.8-2.6 5.1-3.3 4.2-1.8 1.7-1.1 2.2-2.4 0.3-2.4-0.1-1.8-1.1-1.6-1.7-2.1-0.7-2.3 0.6-1.9 0-2-0.6-2.1 0.4 1.4-3.6 0.7-3.1-0.6-3.4-0.4-0.8-1.3-1.1-3.1-0.6-1 0.1-1.4-4.4 0-4.6 3.1-7.7 2.7-6.2 2.2-3.7 4.5-0.3 3.6 0 0 4.7-1.1 1.8-1.3 1.4-0.4 1.8 0.6 1.7 0.6 0.7 0.5 0.7 0.3 4 1.9 2.4 0.5-0.1 0.3-0.6 0.5-0.2 0.5-0.2 0.6-0.3 0.8 0.9 1.6-0.3 1.8-0.6 1.3-0.3 3.9-0.8 1.8 0.5 1.6 1.1 2.6 2.4 2.1 3.1z" id="TR80" name="Osmaniye">
  </path>
  <text x="540" y="325" font-family="sans-serif" font-size="8" fill="white">OSM</text>

  <path d="M687.8 271l-1.9 1.3-2.9 0.9-0.8 0.4-0.6 0.7-0.2 0.9-0.2 2-0.5 0.9-0.6 0.4-2.3 0.8 0.4 0.9 0.1 0.7-0.3 0.8-0.6 0.9 0.3 0.3 0.1 0.4-0.1 0.5-0.3 0.5-0.3-0.1-0.9-0.3-0.4 0-0.7 0.2-0.7 0.5-0.5 0.8-0.4 0.9 0.7-0.2 1.3-0.9 0.6-0.1 0.5 0.5-0.1 1.5 0.6 0.9-0.9 0.2-1.1 0.1-1 0.2-0.6 0.7 0.4 0.3 1.2 1.3-0.3 0.3-0.4 0.2-0.4 0-0.8-0.6-0.4 0.3-0.2 0.5-0.2 0.2-0.2 0.1-0.3 0.1-0.3 0.1-0.4 0.1-0.2-0.1-0.6-0.6-0.1-0.2-1 0.6 0.9 1 2.3 1.8-10.5 1.6-2.3 2.4-0.5 0.3-0.6 1-2.8 3.1-1 0.6-5.8 1-1.5-0.6-2.8 1-0.5 0-0.3 1.4-0.7 0.3-2.1-0.3-0.4 0.3-0.1 0.8 0.1 0.7-0.2 0.3-0.2 0.1-0.1 0.1-0.1 0.1-0.2 0.1-0.2-0.1-0.1-0.5-0.2-0.2-2.1-0.5-0.9-0.4-0.6-0.8-1.4 1-0.5 0-0.7-0.5-3.7-3.3-5.6-2.1-5.2-0.1-5.2 1.1-5.2-3.2-2.8-1-1.7-2.8 0.1-3.5 1.8-2.4 2.7-2.3 2.3-2.9 6.7-1.3 4.2-1.7 4.4-0.6 2 0.6 2 0.3 1.7-0.6 1.7-0.8 4-1 2.9-2.6 0.1-3.2 1.2-2.3 3.7-2.1 3-4.5 3.5-3.9 3.3-0.1 2.8-0.8 2.8 0.6 0.2 1.9-1.8 1.8-1 0.6 0.3 1.3 0.8 0.4 0.8 0.5 2.8 0.8 3.3 0 3.3 0.4 3.5-0.7 1.4 0 1.3-0.3 1.9-0.9 2-0.5 2.6-1.2 2.1-2.5 1.3 0.8 3.8-1.6 1.5 1.6 0.2 1.6-0.4 1.3-1.1 2.5 0.4 0.8-0.4 0.8-1.7 1.2z" id="TR02" name="Adiyaman">
  </path>
  <text x="635" y="290" font-family="sans-serif" font-size="9" fill="white">ADI</text>
  <path d="M777.3 287.7l-3 1.5-16.6-0.5-5.2 1.1-0.6 1.4-2.3 3-3.8 0.3-5.2 4.1-2.4 0.9-5.2 3.6-2.1 2-4.6 6-2.2-2.5-1.6-3.1-1.7-4.9-0.2-0.9-0.4-1.7-0.7-4.5 0.3-6.5-0.7-1.5-0.9-0.2-0.8-0.5-1.2-1.1-1.4-0.6-0.4 0.8-0.5 0.7-2.3-1-1.8-1.7-1.6-0.5-1.5-0.8-3.1-2.6-2.8-3-2.6-1.2-2.9-0.1-3.8-0.7-3.7-2 1.7-1.2 0.4-0.8-0.4-0.8 1.1-2.5 0.4-1.3-0.2-1.6-1.5-1.6-3.8 1.6-1.3-0.8 1.6-5.6-0.1-1.4-0.6-1.3-0.9-0.9 6.6-1.1 3.9 1 4 0.3 2-0.8 3.7-0.5 1.3-0.8 3.6-0.3 3.7 0.2 1.6-0.6 1.4-0.9 1.2-1.9 1.1-1.9 0.7-2 2.2-0.4 1 0.5 1.7 1.3 0.8 0.3 15.9-0.5 5.5-0.2 1.9-0.9 1.3-2 0-1.8 0.3-1.7 2.7-1.3 4.6-0.7 1.7 0.2 2.3 0.6 8.1 0.3 3.1-0.9 5.9-3.6 5.8-2.2 2.3-1.7 2.4 3.2 3.2 2.3 0.6 2.4-0.6 2.5 0.6 1.6 1.4 0.5 0.3 2-1.8 1-1.5 0.2-1.5 0.5-2.5 1.2-1.1 1.5-0.4 2.2-1 3.3-0.5 3.5 0.6 6.6-0.4 3.4-0.7 1.4-0.9 1.3-2.2 7.3-1.9 2.2-2.3 1.6-0.5 1.4 0.5 1.7 0.4 2.3 1 1.8z" id="TR21" name="Diyarbakir">
  </path>
  <text x="730" y="275" font-family="sans-serif" font-size="9" fill="white">DYB</text>

  <path d="M812.6 290.8l-8.8 6.3-5.3 3.9-7.3 1.5-5.1-3.2-3.3-6.9-3.4-4.3-0.9-0.4-1.2 0-1-1.8-0.4-2.3-0.5-1.7 0.5-1.4 2.3-1.6 1.9-2.2 2.2-7.3 0.9-1.3 0.7-1.4 0.4-3.4-0.6-6.6 0.5-3.5 1-3.3 0.4-2.2 1.1-1.5 2.5-1.2 1.5-0.5 1.5-0.2 1.8-1-0.3-2 2.6-0.9 2.7-0.3 4 1.5 1.7 8.2 1.1 3.3 0.2 2.2 0 2.2-0.2 1.4 0.1 1.3-2.1 2.6-1 3.2-2.4 2.7-5.5 1.5-1.5 2.8 0.4 4 5.1 4.7 8.6 3.5 5.1 5.6z" id="TR72" name="Batman">
  </path>
  <text x="785" y="290" font-family="sans-serif" font-size="8" fill="white">BAT</text>

  <path d="M869.8 289.7l-0.5 3.4-2.9 3-8.1-0.8-10-1.4-9.6-2.5-6.3-0.3-3.7 3.7-9.4-0.7-6.7-3.3-5.1-5.6-8.6-3.5-5.1-4.7-0.4-4 1.5-2.8 5.5-1.5 2.4-2.7 1-3.2 2.1-2.6 4.9 1.9 5.1 0.4 4.1-1 4.1-1.6 3.2 1.5 2.8 2.8 3.1 2.4 3.4 1.4 3.3 0.8 2.1 0.9 3 2.2 4.8 2.7 3.2 2.4 1.8-0.2 1.4-2.1 0.2-2.8-0.2-1.9 0-1.8 0.5-0.8 0.6-0.7 1.3-4 3.7-0.3 3.8 0.7 3.4 1.3 0.5 4.3-0.2 2.5 0.3 2.4-0.2 2.6-0.6 2.4-0.2 3.5-0.7 1.5-0.5 1.6 1.9 4.5z" id="TR56" name="Siirt">
  </path>
  <text x="820" y="283" font-family="sans-serif" font-size="9" fill="white">SRT</text>

  <path d="M718.4 116.5l1-0.1 0.7-0.8-0.3-1.5 0.6-0.6 0.3-0.2 1.5 0.5 2.9 3.3 1.9 1.1 4.1 0.1 3.9 1.3 2.1 0 2.3-0.8 2.4-0.4 4.9 0 1.9-0.6 0.9-0.2 1.5 3.8 1.4 8.5 1.2 3.8 2.9 1.7 3.1 0.7 1.4 0.6 3.1 0.3 0.2 1.2-1.2 2.2-1.3 1.7-5.9 2.1-2.7 1.3-2 2-2.1 1.6-1.7 0.3-7.8-1-7.7-1.5-2.3 0.8-1.9 1.8-2.4 0.3-2.7-0.3-2.5 1-1.8-3.9-1-4.2 0.2-2 0.6-2 1.5-3.6 0.4-9.1-1.6-9.2z" id="TR69" name="Bayburt">
  </path>
  <text x="730" y="140" font-family="sans-serif" font-size="9" fill="white">BAY</text>
  <path d="M685.6 103.3l0.9 0.7 1 0.1 1-0.9 0.8-1.1 2 1.2 0.7 3.7 3.2 3.3 11.1 4.5 2.8 0.3 1-0.2 0.7-0.8 0.6-2.6 1.4-1.1 3.3 2.2 2.3 3.9 1.6 9.2-0.4 9.1-1.5 3.6-0.6 2-0.2 2 1 4.2 1.8 3.9-1.8 2.7-2.1 2.2-5.3 1.3-2.6 1.3-2.7 0.2-2.8-0.2-2.8 0.3-2.9-0.3-2.8-1.4-2.9-0.9-0.8-0.8-0.7-1.1-1.8-1.1-1.8-0.7-5.2-3.1-1.4-0.3-1.4-0.3-1.4-0.6-1.3-0.8 0.4-2-1.3-1.7-0.4-2.2 0.2-2.2-0.2-2.1 0.1-2.1 1-1.3 4.8-2.6 1.4-1.2 0.3-2.3-1.1-0.3-1.3-1.3-1.3-1.1-5.6-1.4-1.3-1.6-0.1-2.2 0.3-2.8 0.1-0.5 0.5-0.7 1.4-1.5 0.9-1.7-0.6-1.9 0.6-1.6 1.5-1 1.4-1.2 1.2-0.3 0.9-0.5 0.2-0.9 0.3-0.7 5.7-0.7z" id="TR29" name="Gümüshane">
  </path>
  <text x="685.6" y="140" font-family="sans-serif" font-size="9" fill="white">GÜM</text>
 </g>
 <g id="points">
  <circle class="36.13372868983344|26.620445987274163" cx="90.9" cy="384.7" id="0">
  </circle>
  <circle class="38.645329944972325|36.192312755397474" cx="545.5" cy="234.5" id="1">
  </circle>
  <circle class="41.78483151389593|43.84980616989612" cx="909.1" cy="39.2" id="2">
  </circle>
 </g>
 <g id="label_points">
  <circle class="Ardahan" cx="859.9" cy="77.1" id="TR75">
  </circle>
  <circle class="Artvin" cx="807.8" cy="83.6" id="TR08">
  </circle>
  <circle class="Sirnak" cx="843.9" cy="306.9" id="TR73">
  </circle>
  <circle class="Hakkari" cx="925.7" cy="298.3" id="TR30">
  </circle>
  <circle class="Iğdir" cx="915.7" cy="161.9" id="TR76">
  </circle>
  <circle class="Agri" cx="869.6" cy="173.1" id="TR04">
  </circle>
  <circle class="Van" cx="900.1" cy="246.9" id="TR65">
  </circle>
  <circle class="Kirklareli" cx="126.1" cy="47.6" id="TR39">
  </circle>
  <circle class="Edirne" cx="87.9" cy="81.4" id="TR22">
  </circle>
  <circle class="Kars" cx="875.3" cy="126.2" id="TR36">
  </circle>
  <circle class="Mardin" cx="770.8" cy="307.9" id="TR47">
  </circle>
  <circle class="Sanliurfa" cx="688.5" cy="321" id="TR63">
  </circle>
  <circle class="Kilis" cx="586.2" cy="344.3" id="TR79">
  </circle>
  <circle class="Gaziantep" cx="604.7" cy="330" id="TR27">
  </circle>
  <circle class="Hatay" cx="546" cy="370.8" id="TR31">
  </circle>
  <circle class="Istanbul" cx="176.3" cy="73.8" id="TR34">
  </circle>
  <circle class="Tekirdag" cx="115.5" cy="87.1" id="TR59">
  </circle>
  <circle class="Çanakkale" cx="100.3" cy="147.9" id="TR17">
  </circle>
  <circle class="Rize" cx="768.1" cy="92.4" id="TR53">
  </circle>
  <circle class="Trabzon" cx="716.4" cy="101" id="TR61">
  </circle>
  <circle class="Giresun" cx="656.3" cy="115.1" id="TR28">
  </circle>
  <circle class="Ordu" cx="609.4" cy="101.2" id="TR52">
  </circle>
  <circle class="Samsun" cx="529.3" cy="74" id="TR55">
  </circle>
  <circle class="Sinop" cx="483.6" cy="48.4" id="TR57">
  </circle>
  <circle class="Kastamonu" cx="421" cy="56.5" id="TR37">
  </circle>
  <circle class="Bartın" cx="369.3" cy="53.1" id="TR74">
  </circle>
  <circle class="Zinguldak" cx="343.3" cy="71.5" id="TR67">
  </circle>
  <circle class="Düzce" cx="311.3" cy="95.8" id="TR81">
  </circle>
  <circle class="Sakarya" cx="274.8" cy="107.5" id="TR54">
  </circle>
  <circle class="Kocaeli" cx="254.3" cy="93.2" id="TR41">
  </circle>
  <circle class="Yalova" cx="215.4" cy="114.7" id="TR77">
  </circle>
  <circle class="Bursa" cx="205.6" cy="151.1" id="TR16">
  </circle>
  <circle class="Balikesir" cx="151.2" cy="166.5" id="TR10">
  </circle>
  <circle class="Izmir" cx="127.6" cy="259" id="TR35">
  </circle>
  <circle class="Aydin" cx="157" cy="289.6" id="TR09">
  </circle>
  <circle class="Mugla" cx="184.9" cy="328.4" id="TR48">
  </circle>
  <circle class="Antalya" cx="260.9" cy="341.5" id="TR07">
  </circle>
  <circle class="Mersin" cx="432.7" cy="353.6" id="TR33">
  </circle>
  <circle class="Adana" cx="511.6" cy="315.2" id="TR01">
  </circle>
  <circle class="Bolu" cx="331.9" cy="112.6" id="TR14">
  </circle>
  <circle class="Ankara" cx="374.2" cy="163.1" id="TR06">
  </circle>
  <circle class="Bilecik" cx="254.6" cy="145.8" id="TR11">
  </circle>
  <circle class="Eskisehir" cx="302.9" cy="174.3" id="TR26">
  </circle>
  <circle class="Çankiri" cx="422" cy="108.9" id="TR18">
  </circle>
  <circle class="Karabük" cx="378.4" cy="77.9" id="TR78">
  </circle>
  <circle class="Tokat" cx="568.3" cy="122.1" id="TR60">
  </circle>
  <circle class="Sivas" cx="600.3" cy="177.5" id="TR58">
  </circle>
  <circle class="Çorum" cx="471.6" cy="120.2" id="TR19">
  </circle>
  <circle class="Amasya" cx="520.5" cy="110" id="TR05">
  </circle>
  <circle class="Kütahya" cx="231.8" cy="194.5" id="TR43">
  </circle>
  <circle class="Konya" cx="368.1" cy="267.4" id="TR42">
  </circle>
  <circle class="Karaman" cx="398.4" cy="323.7" id="TR70">
  </circle>
  <circle class="Nigde" cx="472.6" cy="272.5" id="TR51">
  </circle>
  <circle class="Kayseri" cx="519.8" cy="237.9" id="TR38">
  </circle>
  <circle class="Isparta" cx="299.1" cy="277.4" id="TR32">
  </circle>
  <circle class="Manisa" cx="175.1" cy="230.6" id="TR45">
  </circle>
  <circle class="Denizli" cx="216.6" cy="283.6" id="TR20">
  </circle>
  <circle class="Burdur" cx="247.3" cy="305" id="TR15">
  </circle>
  <circle class="Aksaray" cx="434.1" cy="252.8" id="TR68">
  </circle>
  <circle class="Nevsehir" cx="473.8" cy="226.7" id="TR50">
  </circle>
  <circle class="Yozgat" cx="504.6" cy="176.7" id="TR66">
  </circle>
  <circle class="Kirsehir" cx="448.9" cy="192.6" id="TR40">
  </circle>
  <circle class="Usak" cx="223.2" cy="242.7" id="TR64">
  </circle>
  <circle class="Erzincan" cx="675.3" cy="168.3" id="TR24">
  </circle>
  <circle class="Tunceli" cx="704.7" cy="204" id="TR62">
  </circle>
  <circle class="Afyonkarahisar" cx="277.4" cy="233.6" id="TR03">
  </circle>
  <circle class="Kinkkale" cx="424.4" cy="166.1" id="TR71">
  </circle>
  <circle class="K. Maras" cx="580.1" cy="277.2" id="TR46">
  </circle>
  <circle class="Mus" cx="808.6" cy="219.4" id="TR49">
  </circle>
  <circle class="Erzurum" cx="799.5" cy="154" id="TR25">
  </circle>
  <circle class="Malatya" cx="630.1" cy="234.9" id="TR44">
  </circle>
  <circle class="Elazig" cx="686.5" cy="236.8" id="TR23">
  </circle>
  <circle class="Bitlis" cx="837.3" cy="242.3" id="TR13">
  </circle>
  <circle class="Bingöl" cx="763.2" cy="210.5" id="TR12">
  </circle>
  <circle class="Osmaniye" cx="550.1" cy="322.8" id="TR80">
  </circle>
  <circle class="Adiyaman" cx="654.1" cy="282.2" id="TR02">
  </circle>
  <circle class="Diyarbakir" cx="737.1" cy="269.4" id="TR21">
  </circle>
  <circle class="Batman" cx="794.5" cy="257.1" id="TR72">
  </circle>
  <circle class="Siirt" cx="822.5" cy="277.5" id="TR56">
  </circle>
  <circle class="Bayburt" cx="736.9" cy="133.7" id="TR69">
  </circle>
  <circle class="Gümüshane" cx="698.7" cy="135" id="TR29">
  </circle>
 </g>
</svg>